<?xml version="1.0" encoding="utf-8"?>
<!-- Generator: Adobe Illustrator 19.1.0, SVG Export Plug-In . SVG Version: 6.00 Build 0)  -->
<svg version="1.1" xmlns="http://www.w3.org/2000/svg" xmlns:xlink="http://www.w3.org/1999/xlink" x="0px" y="0px"
	 viewBox="0 0 946 251" style="enable-background:new 0 0 946 251;" xml:space="preserve">
<style type="text/css">
	.st0{fill:#FFFFFF;}
</style>
<g id="Layer_1">
	<g>
		<path class="st0" d="M55.1,151.9V207c0,20.5,2.9,28.2,22.4,36.2v0.6H1.9v-0.6c14.7-7,17.3-16,17.3-37.2V57.4
			c0-21.1-2.6-30.1-17.3-37.2v-0.6h72.7c43.9,0,77.5,22.7,77.5,66.3c0,43.2-33.6,66-77.5,66H55.1z M66.3,144.2
			c33,0,48.1-24.3,48.1-58.3c0-34.3-15.1-58.6-48.1-58.6H55.1v116.9H66.3z"/>
		<g>
			<g>
				<path class="st0" d="M698.8,211.5c0,21.1,2.2,25.3,13.5,31.7v0.6h-60.9v-0.6c11.5-6.4,13.1-10.6,13.1-31.7v-89
					c0-21.8-3.2-28.2-14.7-34.6v-0.6h49V211.5z M681.5,16.1c12.2,0,21.8,9.6,21.8,21.5s-9.6,21.8-21.8,21.8
					c-11.9,0-21.8-9.9-21.8-21.8S669.7,16.1,681.5,16.1z"/>
			</g>
		</g>
		<path class="st0" d="M943.4,159h-75.6c0,41.3,11.9,69.8,37.2,69.8c15.7,0,28.8-11.2,35.6-37.2l2.2,0.3
			c-4.5,34.6-21.1,55.1-50.9,55.1c-32,0-59.6-29.8-59.6-81c0-48.7,27.9-82,59.6-82C927.4,84,943.4,115.1,943.4,159z M910.8,151.6
			c0-33-1.6-61.5-18.9-61.5c-13.8,0-22.7,26.9-23.7,61.5H910.8z"/>
		<path class="st0" d="M641.7,232.3c-7.4,0-12.5-5.1-12.5-17.3c0-22.4,0.6-53.5,0.6-84.6c0,0,0,0,0,0V3.9h-49.3v0.6
			c11.2,6.7,15.1,12.8,15.1,34.6v81C590.8,95.6,577.3,84,557.1,84c-27.2,0-51.3,31.7-51.3,82c0,51.9,23.1,81,50,81
			c20.5,0,34.9-13.1,39.7-37.8v4.5l0.3,6.1c1.9,17,11.9,26.6,27.2,26.6c14.1,0,22.7-7.4,26.6-16.3v-0.6
			C648.1,231,645.2,232.3,641.7,232.3z M568.4,233.3c-17,0-25.6-26.6-25.6-67.6c0-41.3,9-68.9,25.9-68.9c13.1,0,26.9,17.3,26.9,51.8
			v34.5C595.5,216.4,581.5,233.3,568.4,233.3z"/>
		<g>
			<g>
				<path class="st0" d="M269.3,232.7c-7.4,0-12.5-5.1-12.5-17.3c0-22.4,0.6-53.5,0.6-84.6c0-34-18.9-46.4-51.3-46.4
					c-25.9,0-47.7,14.1-47.7,36.5c0,8.9,3.1,15.4,8.2,19.5l28.4-9.8c-6.3-1.9-9.7-8.5-9.7-18.6c0-12.5,6.7-21.5,17.9-21.5
					c12.5,0,19.5,9.9,19.5,24.7v34.2l-13.8,3.8c-28.5,8.3-58,24.4-58,56.4c0,24,16,36.8,35.6,36.8c19.2,0,33.3-12.8,36.5-32.4
					l0.3,6.1c1.9,17,11.9,26.6,27.2,26.6c14.1,0,22.7-7.4,26.6-16.3v-0.6C275.7,231.4,272.8,232.7,269.3,232.7z M222.5,194.9
					c-0.3,22.1-9,32.4-20.8,32.4c-11.2,0-17.6-9.6-17.6-25c0-23.4,13.1-38.2,30.1-43.9l8.6-2.9L222.5,194.9z"/>
			</g>
		</g>
		<g>
			<g>
				<path class="st0" d="M496.4,232.7c-7.4,0-12.5-5.1-12.5-17.3c0-22.4,0.6-53.5,0.6-84.6c0-34-18.9-46.4-51.3-46.4
					c-25.9,0-47.7,14.1-47.7,36.5c0,8.9,3.1,15.4,8.2,19.5l28.4-9.8c-6.3-1.9-9.7-8.5-9.7-18.6c0-12.5,6.7-21.5,17.9-21.5
					c12.5,0,19.5,9.9,19.5,24.7v34.2l-13.8,3.8c-28.5,8.3-58,24.4-58,56.4c0,24,16,36.8,35.6,36.8c19.2,0,33.3-12.8,36.5-32.4
					l0.3,6.1c1.9,17,11.9,26.6,27.2,26.6c14.1,0,22.7-7.4,26.6-16.3v-0.6C502.8,231.4,499.9,232.7,496.4,232.7z M449.6,194.9
					c-0.3,22.1-9,32.4-20.8,32.4c-11.2,0-17.6-9.6-17.6-25c0-23.4,13.1-38.2,30.1-43.9l8.6-2.9L449.6,194.9z"/>
			</g>
		</g>
		<path class="st0" d="M385.1,93.1c-4.7-4.7-12.4-8-21.4-8c-18.6,0-32.3,20.8-37.4,43.9l0,0V88h-49v0.6
			c11.5,6.4,14.7,12.8,14.7,34.6v89c0,21.1-1.6,25.3-13.1,31.7v0.6h64.1V244c-12.2-6.4-16.7-9.6-16.7-30.4V156h0
			c0-28.5,13.6-47.8,25.8-47.8c8.6,0,13.5,4.3,14.8,10c0.6,2.5,0.4,3.6,0.4,3.6L385.1,93.1z"/>
		<path class="st0" d="M748.6,112.5c0,14.1,5.8,22.1,28.8,32.7c28.2,13.1,42.3,28.2,42.3,52.9c0,31.7-23.1,49-47.7,49
			c-17,0-24.7-7.4-33-7.4c-4.8,0-11.8,2.8-15.7,6.6v-60.4h1c11.2,33.3,29.5,55.1,47.4,55.1c14.1,0,22.4-10.9,22.4-25.6
			c0-18.3-9.9-24.7-29.1-34.6c-27.2-13.1-40.7-25.3-40.7-50.6c0-28.5,21.1-46.1,43.6-46.1c15.7,0,22.4,7.7,31.1,7.7
			c4.8,0,8.3-2.9,12.8-7.7v53.2h-1c-9.6-27.5-24.7-46.8-42.3-46.8C756.3,90.4,748.6,99.7,748.6,112.5z"/>
	</g>
</g>
<g id="Layer_2">
</g>
<g id="Layer_3">
</g>
</svg>
