<?xml version="1.0" encoding="utf-8"?>
<!-- Generator: Adobe Illustrator 19.0.0, SVG Export Plug-In . SVG Version: 6.00 Build 0)  -->
<svg version="1.1" baseProfile="tiny" id="Layer_1" xmlns="http://www.w3.org/2000/svg" xmlns:xlink="http://www.w3.org/1999/xlink"
	 x="0px" y="0px" viewBox="0 0 842.9 91.5" xml:space="preserve">
<path fill="#FFFFFF" d="M508.7,55.7v20.7c0,7.7,1.1,10.6,8.4,13.6v0.2h-28.4V90c5.5-2.7,6.5-6,6.5-14V20.1c0-8-1-11.3-6.5-14V5.9
	h27.4c16.5,0,29.2,8.6,29.2,24.9c0,16.3-12.7,24.8-29.2,24.8H508.7z M512.9,52.8c12.4,0,18.1-9.2,18.1-21.9
	c0-12.9-5.7-22.1-18.1-22.1h-4.2v44H512.9z"/>
<path fill="#FFFFFF" d="M750.9,78.1c0,8,0.8,9.5,5.1,11.9v0.2h-22.9V90c4.3-2.4,4.9-4,4.9-11.9V44.6c0-8.2-1.2-10.6-5.5-13v-0.2
	h18.4V78.1z M744.4,4.6c4.6,0,8.2,3.6,8.2,8.1s-3.6,8.2-8.2,8.2c-4.5,0-8.2-3.7-8.2-8.2S740,4.6,744.4,4.6z"/>
<path fill="#FFFFFF" d="M842.9,58.3h-28.4c0,15.5,4.5,26.3,14,26.3c5.9,0,10.8-4.2,13.4-14l0.8,0.1c-1.7,13-8,20.7-19.2,20.7
	c-12.1,0-22.4-11.2-22.4-30.5c0-18.3,10.5-30.9,22.4-30.9C836.9,30.1,842.9,41.8,842.9,58.3z M830.6,55.6c0-12.4-0.6-23.1-7.1-23.1
	c-5.2,0-8.6,10.1-8.9,23.1H830.6z"/>
<path fill="#FFFFFF" d="M729.4,85.9c-2.8,0-4.7-1.9-4.7-6.5c0-8.4,0.2-20.1,0.2-31.8l0,0V0h-18.6v0.2c4.2,2.5,5.7,4.8,5.7,13v30.5
	c-1.8-9.3-6.9-13.6-14.5-13.6c-10.2,0-19.3,11.9-19.3,30.9c0,19.5,8.7,30.5,18.8,30.5c7.7,0,13.1-4.9,14.9-14.2v1.7l0.1,2.3
	c0.7,6.4,4.5,10,10.2,10c5.3,0,8.6-2.8,10-6.1v-0.2C731.8,85.4,730.7,85.9,729.4,85.9z M701.8,86.3c-6.4,0-9.6-10-9.6-25.4
	c0-15.5,3.4-25.9,9.8-25.9c4.9,0,10.1,6.5,10.1,19.5v13C712.1,79.9,706.8,86.3,701.8,86.3z"/>
<path fill="#FFFFFF" d="M589.3,86.1c-2.8,0-4.7-1.9-4.7-6.5c0-8.4,0.2-20.1,0.2-31.8c0-12.8-7.1-17.5-19.3-17.5
	c-9.8,0-18,5.3-18,13.7c0,3.4,1.2,5.8,3.1,7.3l10.7-3.7c-2.4-0.7-3.6-3.2-3.6-7c0-4.7,2.5-8.1,6.7-8.1c4.7,0,7.4,3.7,7.4,9.3v12.9
	l-5.2,1.4c-10.7,3.1-21.8,9.2-21.8,21.2c0,9,6,13.9,13.4,13.9c7.2,0,12.5-4.8,13.7-12.2l0.1,2.3c0.7,6.4,4.5,10,10.2,10
	c5.3,0,8.6-2.8,10-6.1V85C591.7,85.6,590.6,86.1,589.3,86.1z M571.7,71.8c-0.1,8.3-3.4,12.2-7.8,12.2c-4.2,0-6.6-3.6-6.6-9.4
	c0-8.8,4.9-14.4,11.3-16.5l3.3-1.1L571.7,71.8z"/>
<path fill="#FFFFFF" d="M674.8,86.1c-2.8,0-4.7-1.9-4.7-6.5c0-8.4,0.2-20.1,0.2-31.8c0-12.8-7.1-17.5-19.3-17.5
	c-9.8,0-18,5.3-18,13.7c0,3.4,1.2,5.8,3.1,7.3l10.7-3.7c-2.4-0.7-3.6-3.2-3.6-7c0-4.7,2.5-8.1,6.7-8.1c4.7,0,7.4,3.7,7.4,9.3v12.9
	l-5.2,1.4c-10.7,3.1-21.8,9.2-21.8,21.2c0,9,6,13.9,13.4,13.9c7.2,0,12.5-4.8,13.7-12.2l0.1,2.3c0.7,6.4,4.5,10,10.2,10
	c5.3,0,8.6-2.8,10-6.1V85C677.2,85.6,676.1,86.1,674.8,86.1z M657.2,71.8c-0.1,8.3-3.4,12.2-7.8,12.2c-4.2,0-6.6-3.6-6.6-9.4
	c0-8.8,4.9-14.4,11.3-16.5l3.3-1.1L657.2,71.8z"/>
<path fill="#FFFFFF" d="M632.9,33.5c-1.8-1.8-4.7-3-8.1-3c-7,0-12.1,7.8-14.1,16.5l0,0V31.6h-18.4v0.2c4.3,2.4,5.5,4.8,5.5,13v33.5
	c0,8-0.6,9.5-4.9,11.9v0.2H617v-0.2c-4.6-2.4-6.3-3.6-6.3-11.4V57.2h0c0-10.7,5.1-18,9.7-18c3.2,0,5.1,1.6,5.6,3.8
	c0.2,0.9,0.2,1.4,0.2,1.4L632.9,33.5z"/>
<path fill="#FFFFFF" d="M769.6,40.9c0,5.3,2.2,8.3,10.8,12.3c10.6,4.9,15.9,10.6,15.9,19.9c0,11.9-8.7,18.4-18,18.4
	c-6.4,0-9.3-2.8-12.4-2.8c-1.8,0-4.4,1.1-5.9,2.5V68.5h0.4c4.2,12.5,11.1,20.7,17.8,20.7c5.3,0,8.4-4.1,8.4-9.6c0-6.9-3.7-9.3-11-13
	c-10.2-4.9-15.3-9.5-15.3-19c0-10.7,8-17.4,16.4-17.4c5.9,0,8.4,2.9,11.7,2.9c1.8,0,3.1-1.1,4.8-2.9v20H793
	c-3.6-10.4-9.3-17.6-15.9-17.6C772.5,32.5,769.6,36,769.6,40.9z"/>
<path id="XMLID_16_" fill="#FFFFFF" d="M44.1,37.2L29.7,91.4h-0.5l-21.3-72C5.8,11.7,4.7,8.8,0,6.2V5.9h25.3v0.2
	c-3.4,1.6-4.6,3.5-4.6,6.4c0,1.9,0.6,4.3,1.4,7.2l12.2,43l8.2-31.7l-3-11.7c-1.9-7.7-3.4-10.6-7.9-13.2V5.9h24.8v0.2
	c-3.5,1.6-4.7,3.6-4.7,6.6c0,1.9,0.6,4.2,1.2,7l9.9,43.7l11.2-41.4c0.6-2.2,1-4.3,1-6.3c0-4.3-1.8-7.8-6.1-9.6V5.9h18.7v0.2
	c-4.8,2.5-7.6,7.5-10,15.8L58.3,91.4h-0.5L44.1,37.2z"/>
<path id="XMLID_21_" fill="#FFFFFF" d="M121.5,58.3H93.1c0,15.5,4.5,26.2,14,26.2c5.9,0,10.8-4.2,13.4-14l0.8,0.1
	c-1.7,13-7.9,20.7-19.1,20.7c-12,0-22.4-11.2-22.4-30.5c0-18.3,10.5-30.8,22.4-30.8C115.5,30.1,121.5,41.8,121.5,58.3z M109.2,55.5
	c0-12.4-0.6-23.1-7.1-23.1c-5.2,0-8.5,10.1-8.9,23.1H109.2z"/>
<path id="XMLID_27_" fill="#FFFFFF" d="M142.3,78c0,7.9,0.7,9.5,4.9,11.9v0.2h-22.8V90c4.2-2.4,4.9-4,4.9-11.9V13.3
	c0-8.2-1.3-10.5-5.7-13V0h18.5V78z"/>
<path id="XMLID_32_" fill="#FFFFFF" d="M163.7,58.1c0,15.5,4,26.1,13.4,26.1c6.3,0,10.7-3.9,12.6-13.4l0.8,0.1
	c-1.2,13.2-7.8,20.5-18.5,20.5c-11.7,0-21.6-11.1-21.6-30c0-18.4,11.9-31.3,24.3-31.3c9.3,0,15.5,4.9,15.5,12.8c0,5.8-4,9.1-8.8,9.1
	c-3.7,0-6.7-1.9-7.5-5.2c0.5,0.1,1.2,0.1,1.7,0.1c3.3,0,5.4-3,5.4-7.2c0-4.8-2-7.3-6-7.3C168.8,32.4,163.7,41.9,163.7,58.1z"/>
<path id="XMLID_34_" fill="#FFFFFF" d="M194.7,60.7c0-17.8,9.9-30.6,23-30.6c13.1,0,22.9,12.8,22.9,30.6c0,17.9-9.8,30.7-22.9,30.7
	C204.5,91.4,194.7,78.6,194.7,60.7z M226.8,60.7c0-16.4-2.4-28.3-9.1-28.3c-6.7,0-9.3,11.9-9.3,28.3c0,16.4,2.5,28.4,9.3,28.4
	C224.4,89.1,226.8,77.1,226.8,60.7z"/>
<path id="XMLID_38_" fill="#FFFFFF" d="M303.9,30.1c8.4,0,13.1,5.4,13.1,15.7V78c0,7.9,0.6,9.5,4.9,11.9v0.2h-22.8V90
	c4.1-2.4,4.9-4,4.9-11.9V46.4c0-4.9-1-8.9-6.3-8.9c-4.3,0-8.4,4.2-8.4,15.3V78c0,7.9,0.7,9.5,4.9,11.9v0.2h-22.8V90
	c4.2-2.4,4.9-4,4.9-11.9V46.4c0-4.9-1-8.9-6.1-8.9c-4.3,0-8.5,4.2-8.5,15.3V78c0,7.9,0.8,9.5,5.1,11.9v0.2H244V90
	c4.3-2.4,4.9-4,4.9-11.9V44.6c0-8.2-1.2-10.6-5.5-13v-0.2h18.4v12.2c2.3-8.5,7.6-13.4,14.4-13.4c7.5,0,12.2,4.6,13,13.1
	C291.6,34.8,297,30.1,303.9,30.1z"/>
<path id="XMLID_40_" fill="#FFFFFF" d="M366.5,58.3h-28.4c0,15.5,4.5,26.2,14,26.2c5.9,0,10.8-4.2,13.4-14l0.8,0.1
	c-1.7,13-7.9,20.7-19.1,20.7c-12,0-22.4-11.2-22.4-30.5c0-18.3,10.5-30.8,22.4-30.8C360.4,30.1,366.5,41.8,366.5,58.3z M354.2,55.5
	c0-12.4-0.6-23.1-7.1-23.1c-5.2,0-8.5,10.1-8.9,23.1H354.2z"/>
<path id="XMLID_47_" fill="#FFFFFF" d="M417.5,71.2c-0.6,12.5-4.6,20.2-14.1,20.2c-8.3,0-13-5.2-13-17.2V34.5h-5.5v-1
	c9-2.4,15.2-10.8,17.3-22.8h1.1v20.6h12.8l-0.6,3.1h-12.2v39.7c0,7.2,1.6,10.1,5.3,10.1c4.3,0,7-4.3,7.8-13.1H417.5z"/>
<path id="XMLID_53_" fill="#FFFFFF" d="M420.6,60.7c0-17.8,9.9-30.6,23-30.6c13.1,0,22.9,12.8,22.9,30.6c0,17.9-9.8,30.7-22.9,30.7
	C430.5,91.4,420.6,78.6,420.6,60.7z M452.8,60.7c0-16.4-2.4-28.3-9.1-28.3c-6.7,0-9.3,11.9-9.3,28.3c0,16.4,2.5,28.4,9.3,28.4
	C450.4,89.1,452.8,77.1,452.8,60.7z"/>
<g id="XMLID_94_">
</g>
<g id="XMLID_95_">
</g>
<g id="XMLID_96_">
</g>
<g id="XMLID_97_">
</g>
<g id="XMLID_98_">
</g>
<g id="XMLID_99_">
</g>
</svg>
