<?xml version="1.0" standalone="no"?>
<!DOCTYPE svg PUBLIC "-//W3C//DTD SVG 1.1//EN" "http://www.w3.org/Graphics/SVG/1.1/DTD/svg11.dtd" >
<svg xmlns="http://www.w3.org/2000/svg">
<metadata></metadata>
<defs>
<font id="clight" horiz-adv-x="394" >
<font-face units-per-em="2048" ascent="1332" descent="-716" />
<missing-glyph horiz-adv-x="452" />
<glyph horiz-adv-x="0" />
<glyph horiz-adv-x="0" />
<glyph unicode="&#xd;" horiz-adv-x="0" />
<glyph unicode=" "  horiz-adv-x="452" />
<glyph unicode="&#x09;" horiz-adv-x="452" />
<glyph unicode="&#xa0;" horiz-adv-x="452" />
<glyph unicode="!" horiz-adv-x="422" d="M134 66q0 34 22 58q22 22 54 22t54 -22q22 -24 22 -58q0 -32 -22 -54t-54 -22t-54 22t-22 54zM154 1252h114q-4 -216 -20 -864h-74q-6 216 -20 864z" />
<glyph unicode="&#x22;" horiz-adv-x="452" d="M82 852v300v100h92v-400h-92zM278 852v100v300h92v-400h-92z" />
<glyph unicode="#" horiz-adv-x="1124" d="M56 386q4 20 18 82h200q18 78 74 312h-210q4 20 16 82h212q24 98 94 390h90q-22 -98 -94 -390h322q24 98 94 390h90q-22 -98 -94 -390h202q-6 -22 -20 -82h-200q-18 -78 -74 -312h210q-4 -20 -16 -82h-214q-24 -98 -92 -390h-92q22 96 92 390h-320q-24 -98 -94 -390h-88 q22 96 92 390h-198zM362 468h322q18 78 74 312h-320q-18 -78 -76 -312z" />
<glyph unicode="$" horiz-adv-x="948" d="M56 308h106q76 -196 320 -196q130 0 214 62q82 60 82 170q0 160 -200 214q-74 20 -220 62q-130 36 -202 104q-70 68 -70 186q0 140 98 224q98 86 250 92v182h92v-186q134 -16 220 -92q88 -76 118 -194h-100q-72 202 -310 202q-118 0 -194 -60q-78 -58 -78 -164 q0 -86 54 -130q54 -46 170 -78l192 -54q276 -78 276 -306q0 -140 -98 -226t-250 -96v-202h-92v202q-142 10 -242 84q-100 76 -136 200z" />
<glyph unicode="%" horiz-adv-x="1272" d="M76 1008q0 110 76 186q76 78 184 78t184 -78q76 -76 76 -186q0 -106 -76 -182t-184 -76t-184 76q-76 74 -76 182zM160 1008q0 -70 50 -122q52 -52 126 -52t124 52q52 52 52 122q0 74 -52 126q-50 54 -124 54t-126 -54q-50 -52 -50 -126zM184 -4l816 1256h88l-816 -1256 h-88zM676 238q0 108 76 184q76 74 184 74t184 -74q74 -74 74 -184q0 -108 -76 -184q-76 -78 -182 -78q-108 0 -184 78q-76 76 -76 184zM760 238q0 -72 52 -126q50 -52 124 -52q72 0 122 52q52 54 52 126t-52 124q-50 50 -122 50q-74 0 -124 -50q-52 -52 -52 -124z" />
<glyph unicode="&#x26;" horiz-adv-x="1150" d="M78 360q0 116 68 212q66 94 176 138q-110 128 -110 252q0 140 94 224q92 86 232 86q148 0 234 -86q84 -84 96 -220h-100q-10 102 -70 160q-62 60 -160 60q-100 0 -164 -60q-62 -60 -62 -164q0 -50 24 -98q24 -50 46 -76q24 -26 80 -88q130 -138 388 -412q80 136 86 328 h96q-6 -224 -118 -396q70 -74 212 -224h-130q-36 36 -142 148q-154 -168 -380 -168q-172 0 -284 110q-112 108 -112 274zM176 360q0 -128 84 -210q84 -84 214 -84q196 0 320 142q-136 146 -412 436q-90 -28 -148 -108t-58 -176z" />
<glyph unicode="'" horiz-adv-x="258" d="M82 852v300v100h94v-400h-94z" />
<glyph unicode="(" horiz-adv-x="666" d="M62 574q0 282 148 484t400 268v-102q-190 -48 -320 -222q-128 -176 -128 -428t128 -426q130 -176 320 -222v-102q-252 64 -402 268q-146 202 -146 482z" />
<glyph unicode=")" horiz-adv-x="666" d="M56 -74q190 46 318 222q130 174 130 426t-130 428q-128 174 -318 222v102q252 -66 398 -268q150 -202 150 -484q0 -280 -148 -482q-148 -204 -400 -268v102z" />
<glyph unicode="*" horiz-adv-x="646" d="M64 936q48 26 192 110q-48 28 -192 110q8 14 34 58q48 -28 190 -110v220h68v-220q48 26 190 110q10 -14 34 -58q-48 -28 -192 -110q48 -28 192 -110q-8 -16 -34 -58q-46 28 -190 110v-218h-68v218q-46 -28 -190 -110q-8 14 -34 58z" />
<glyph unicode="+" horiz-adv-x="1052" d="M146 554v88h336v336h88v-336h338v-88h-338v-336h-88v336h-336z" />
<glyph unicode="," horiz-adv-x="288" d="M18 -212q28 52 112 206q-62 12 -62 72q0 34 22 56q20 22 54 22t56 -22t22 -60q0 -36 -32 -90q-32 -60 -98 -184h-74z" />
<glyph unicode="-" horiz-adv-x="658" d="M82 480v94h494v-94h-494z" />
<glyph unicode="." horiz-adv-x="288" d="M68 66q0 34 22 58q22 22 54 22t54 -22q24 -24 24 -58q0 -32 -24 -54q-22 -22 -54 -22t-54 22t-22 54z" />
<glyph unicode="/" horiz-adv-x="626" d="M10 -176q128 374 508 1502h98q-126 -376 -508 -1502h-98z" />
<glyph unicode="0" horiz-adv-x="1098" d="M86 624q0 288 126 468q128 180 336 180t334 -180q128 -180 128 -468t-128 -468q-126 -180 -334 -180t-336 180q-126 180 -126 468zM190 624q0 -246 96 -398q96 -154 262 -154t264 154q96 152 96 398t-96 398q-98 152 -264 152t-262 -152t-96 -398z" />
<glyph unicode="1" horiz-adv-x="676" d="M64 960v26v82q92 46 368 186h64v-1258h-102v1134q-84 -42 -330 -170z" />
<glyph unicode="2" horiz-adv-x="910" d="M54 -4v70q110 122 444 484q88 96 122 138q36 40 70 108t34 128q0 116 -72 184q-72 66 -190 66q-132 0 -208 -80t-90 -220h-104q16 178 124 288q106 110 278 110q168 0 268 -96q98 -96 98 -252q0 -26 -4 -52q-4 -24 -16 -54q-10 -26 -18 -46t-28 -50l-30 -42 q-10 -16 -38 -48t-36 -42q-8 -12 -44 -50q-32 -36 -40 -46q-126 -134 -376 -402h658v-96h-802z" />
<glyph unicode="3" horiz-adv-x="932" d="M50 334h104q22 -126 104 -194q80 -70 208 -70q132 0 210 74q80 72 80 194q0 118 -84 188q-82 70 -204 70h-96v92h94q116 0 190 64q76 66 76 180q0 108 -76 176q-74 68 -196 68q-112 0 -188 -66q-78 -68 -100 -182h-102q24 154 130 248q108 96 260 96q170 0 272 -96 q102 -94 102 -240q0 -112 -66 -194t-164 -100q110 -18 182 -98q72 -82 72 -204q0 -156 -106 -260q-104 -104 -286 -104q-174 0 -284 96q-110 98 -132 262z" />
<glyph unicode="4" horiz-adv-x="1024" d="M44 302v82q122 218 492 868h110q-122 -214 -484 -856h470v312h102v-312h234v-94h-234v-306h-102v306h-588z" />
<glyph unicode="5" horiz-adv-x="942" d="M50 336h104q56 -266 318 -266q128 0 214 92q84 90 84 222q0 134 -84 224q-86 92 -214 92q-150 0 -242 -120h-90v672h666v-96h-574v-456q98 94 246 94q170 0 282 -118t112 -292q0 -170 -114 -288q-114 -120 -286 -120t-284 94q-110 96 -138 266z" />
<glyph unicode="6" horiz-adv-x="1014" d="M86 608q0 306 128 484q128 180 324 180q298 0 378 -304h-104q-70 210 -274 210q-152 0 -254 -150t-102 -398q0 -62 4 -90q26 120 126 198q100 76 224 76q172 0 288 -120q116 -122 116 -296q0 -178 -116 -300q-118 -122 -294 -122q-256 0 -370 240q-74 154 -74 392z M220 396q0 -140 88 -234t222 -94t222 94q90 94 90 234q0 142 -90 236q-88 92 -222 92t-222 -94q-88 -92 -88 -234z" />
<glyph unicode="7" horiz-adv-x="878" d="M36 1156v24v72h798v-84q-116 -292 -466 -1172h-106q116 290 462 1160h-688z" />
<glyph unicode="8" horiz-adv-x="986" d="M70 340q0 116 72 206q70 88 188 118q-96 36 -152 112q-58 76 -58 172q0 138 106 230q106 94 266 94q162 0 266 -94q106 -92 106 -230q0 -96 -58 -172q-56 -76 -150 -112q116 -30 188 -118q72 -90 72 -206q0 -158 -120 -260q-120 -104 -304 -104q-182 0 -302 104 q-120 102 -120 260zM170 344q0 -120 92 -198q90 -80 230 -80q138 0 230 80q94 80 94 198q0 116 -94 196q-92 80 -230 80q-140 0 -230 -80q-92 -78 -92 -196zM222 946q0 -100 74 -168q76 -68 196 -68q118 0 196 68q76 68 76 168t-76 168q-76 66 -196 66t-196 -66 q-74 -68 -74 -168z" />
<glyph unicode="9" horiz-adv-x="1014" d="M74 850q0 178 116 300q118 122 294 122q256 0 370 -240q74 -154 74 -392q0 -306 -128 -486q-128 -178 -324 -178q-298 0 -378 304h104q70 -212 274 -212q152 0 254 152q102 150 102 398q0 62 -4 90q-28 -120 -126 -198q-100 -76 -224 -76q-172 0 -288 120 q-116 122 -116 296zM172 852q0 -142 90 -236q88 -92 222 -92t222 92q88 94 88 236q0 140 -88 234q-88 92 -222 92t-222 -92q-90 -94 -90 -234z" />
<glyph unicode=":" horiz-adv-x="288" d="M68 66q0 34 22 58q22 22 54 22t54 -22q24 -24 24 -58q0 -32 -24 -54q-22 -22 -54 -22t-54 22t-22 54zM68 740q0 34 22 56q22 24 54 24t54 -24q24 -22 24 -56q0 -32 -24 -54q-22 -24 -54 -24t-54 24q-22 22 -22 54z" />
<glyph unicode=";" horiz-adv-x="288" d="M18 -212q28 52 112 206q-62 12 -62 72q0 34 22 56q20 22 54 22t56 -22t22 -60q0 -36 -32 -90q-32 -60 -98 -184h-74zM68 740q0 34 22 56q22 24 54 24t54 -24q24 -22 24 -56q0 -32 -24 -54q-22 -24 -54 -24t-54 24q-22 22 -22 54z" />
<glyph unicode="&#x3c;" horiz-adv-x="814" d="M118 546v96q142 78 562 308v-98q-118 -64 -476 -256q120 -64 476 -256v-102q-140 78 -562 308z" />
<glyph unicode="=" horiz-adv-x="1068" d="M154 426v86h762v-86h-762zM154 688v86h762v-86h-762z" />
<glyph unicode="&#x3e;" horiz-adv-x="814" d="M134 238v102q118 64 474 256q-118 64 -474 256v98q140 -78 562 -308v-96q-140 -76 -562 -308z" />
<glyph unicode="?" horiz-adv-x="864" d="M40 878q18 178 126 286t278 108q168 0 266 -94t98 -248q0 -28 -6 -56t-12 -50q-6 -20 -24 -50t-26 -44q-6 -12 -34 -44q-28 -34 -34 -40t-40 -42q-34 -38 -36 -40q-86 -92 -88 -174h-96q4 68 28 116t80 112q10 12 48 50q36 40 52 60t42 56q24 36 34 72q10 34 10 74 q0 114 -72 180q-70 64 -190 64q-128 0 -206 -80q-76 -78 -90 -216h-108zM378 66q0 34 24 58q22 22 54 22t54 -22q22 -24 22 -58q0 -32 -22 -54t-54 -22t-54 22q-24 22 -24 54z" />
<glyph unicode="@" horiz-adv-x="1586" d="M76 376q0 324 214 546q214 224 550 224q296 0 484 -170q186 -172 186 -432q0 -236 -116 -366q-114 -130 -276 -130q-72 0 -122 34q-52 34 -62 94q-36 -52 -98 -86q-62 -36 -126 -36q-126 0 -196 84t-70 216q0 174 104 304q106 132 268 132q68 0 120 -36q54 -34 78 -80 q6 32 18 100h90q-22 -132 -92 -522q-20 -124 98 -124q128 0 212 110q84 112 84 306q0 228 -164 372q-162 146 -420 146q-300 0 -488 -196q-188 -198 -188 -490q0 -158 58 -280q56 -124 154 -192q100 -72 216 -108q118 -36 250 -36q238 0 430 92v-84q-200 -88 -430 -88 q-152 0 -286 40q-134 42 -244 124t-172 218q-64 138 -64 314zM538 356q0 -100 50 -160q50 -58 134 -58q124 0 222 144q12 72 50 284q-52 138 -174 138q-124 0 -204 -106q-78 -108 -78 -242z" />
<glyph unicode="A" horiz-adv-x="1186" d="M48 -4l496 1256h98l496 -1256h-104q-40 102 -164 412h-556q-42 -102 -162 -412h-104zM350 504h484q-60 152 -242 614q-60 -154 -242 -614z" />
<glyph unicode="B" horiz-adv-x="1072" d="M162 -4v786v470h384q194 0 298 -84t104 -240q0 -220 -206 -282q114 -20 184 -106q70 -84 70 -198q0 -166 -110 -256q-108 -90 -300 -90h-424zM264 90h328q146 0 222 68t76 186q0 116 -76 184q-76 70 -222 70h-328v-128v-380zM264 688h282q300 0 300 234q0 236 -300 236 h-282v-118v-352z" />
<glyph unicode="C" horiz-adv-x="1178" d="M80 624q0 292 158 470t394 178q182 0 304 -98t162 -264h-102q-42 124 -134 194q-94 68 -230 68q-198 0 -322 -148q-124 -150 -124 -400t126 -400q124 -148 320 -148q136 0 230 68q92 70 134 194h102q-40 -166 -164 -264q-122 -98 -302 -98q-236 0 -394 176 q-158 180 -158 472z" />
<glyph unicode="D" horiz-adv-x="1232" d="M162 -4v786v470h382q276 0 444 -170q168 -172 168 -458t-168 -458q-168 -170 -444 -170h-382zM266 92h278q232 0 368 144q136 146 136 388t-136 386q-136 146 -368 146h-278v-1064z" />
<glyph unicode="E" horiz-adv-x="1054" d="M162 -4v786v470h780v-96h-678v-464h614v-96h-614v-504h678v-96h-780z" />
<glyph unicode="F" horiz-adv-x="968" d="M162 -4v786v470h728v-96h-624v-478h592v-96h-592v-586h-104z" />
<glyph unicode="G" horiz-adv-x="1224" d="M80 624q0 292 160 470q162 178 402 178q182 0 306 -98q126 -98 166 -264h-104q-90 262 -368 262q-202 0 -328 -148q-128 -150 -128 -400q0 -252 128 -402q126 -150 330 -150q186 0 290 112q104 110 112 308h-328v92h428v-72q0 -242 -136 -388q-138 -148 -366 -148 q-242 0 -404 178q-160 178 -160 470z" />
<glyph unicode="H" horiz-adv-x="1330" d="M162 -4v786v470h104v-560h796v560h106v-1256h-106v600h-796v-600h-104z" />
<glyph unicode="I" horiz-adv-x="428" d="M162 -4v786v470h104v-1256h-104z" />
<glyph unicode="J" horiz-adv-x="966" d="M38 344h110q14 -124 90 -196t196 -72q132 0 212 78q78 78 78 240v858h106v-858q0 -202 -110 -310t-284 -108q-170 0 -278 100q-106 100 -120 268z" />
<glyph unicode="K" horiz-adv-x="1114" d="M162 -4v786v470h104v-658q164 164 656 658h134l-572 -572q148 -172 594 -684h-132q-134 152 -538 612q-36 -36 -142 -144v-468h-104z" />
<glyph unicode="L" horiz-adv-x="1030" d="M162 -4v786v470h104v-1160h682v-96h-786z" />
<glyph unicode="M" horiz-adv-x="1492" d="M162 -4v786v470h114q118 -276 474 -1104l472 1104h110v-1256h-102v1050q-112 -262 -450 -1050h-66q-112 262 -452 1050v-1050h-100z" />
<glyph unicode="N" horiz-adv-x="1262" d="M162 -4v786v470h100q184 -262 738 -1048v1048h100v-1256h-70q-192 272 -768 1090v-1090h-100z" />
<glyph unicode="O" horiz-adv-x="1270" d="M80 624q0 286 156 466q158 182 398 182q244 0 400 -182q158 -180 158 -466t-156 -468q-158 -180 -402 -180q-240 0 -398 180q-156 182 -156 468zM186 624q0 -244 126 -396q124 -152 322 -152q202 0 326 150q126 154 126 398t-126 396q-124 152 -326 152q-198 0 -322 -152 q-126 -152 -126 -396z" />
<glyph unicode="P" horiz-adv-x="1084" d="M162 -4v786v470h454q186 0 292 -92t106 -264q0 -174 -106 -266t-292 -92h-350v-542h-104zM266 634h346q146 0 222 68q76 70 76 194q0 126 -78 194q-76 68 -220 68h-346v-524z" />
<glyph unicode="Q" horiz-adv-x="1270" d="M80 624q0 286 156 466q158 182 398 182q244 0 402 -182q156 -180 156 -466q0 -318 -192 -504q34 -44 102 -134q-18 -14 -70 -56q-26 32 -104 132q-128 -86 -294 -86q-240 0 -398 180q-156 182 -156 468zM186 624q0 -244 126 -396q124 -152 322 -152q132 0 234 64 q-36 46 -106 138l72 56l104 -136q148 148 148 426q0 244 -126 396q-124 152 -326 152q-198 0 -322 -152q-126 -152 -126 -396z" />
<glyph unicode="R" horiz-adv-x="1124" d="M162 -4v786v470h444q186 0 292 -90q104 -92 104 -262q0 -152 -84 -240t-236 -106l378 -558h-120q-94 138 -372 554h-302v-554h-104zM266 642h336q144 0 220 68q78 68 78 190q0 126 -78 192q-76 66 -220 66h-336v-516z" />
<glyph unicode="S" horiz-adv-x="1018" d="M54 302h108q36 -112 130 -172q96 -60 226 -60q140 0 226 68q88 68 88 184q0 172 -218 234q-80 22 -240 68q-142 38 -216 110q-72 70 -72 198q0 154 114 246q116 94 284 94q178 0 290 -86q112 -84 152 -230h-104q-78 220 -338 220q-128 0 -212 -64q-86 -64 -86 -174 q0 -94 56 -142q58 -48 184 -82q70 -20 210 -62q154 -42 226 -122q72 -78 72 -204q0 -160 -116 -256q-118 -94 -300 -94q-176 0 -302 86t-162 240z" />
<glyph unicode="T" horiz-adv-x="1150" d="M64 1156v96h1024v-96h-462v-1160h-104v1160h-458z" />
<glyph unicode="U" horiz-adv-x="1240" d="M138 490v328v434h104v-746q0 -214 104 -324q102 -110 272 -110t274 110q106 110 106 324v746h104v-762q0 -250 -136 -382q-134 -132 -348 -132q-212 0 -346 132t-134 382z" />
<glyph unicode="V" horiz-adv-x="1182" d="M48 1252h108q108 -278 434 -1114q110 280 438 1114h106q-124 -314 -498 -1256h-94q-124 314 -494 1256z" />
<glyph unicode="W" horiz-adv-x="1554" d="M46 1252h104q72 -270 290 -1080l296 1080h86q72 -270 294 -1080q72 270 290 1080h104q-86 -314 -342 -1256h-94q-76 266 -298 1070q-74 -268 -294 -1070h-92z" />
<glyph unicode="X" horiz-adv-x="1106" d="M50 -4q110 158 444 636q-108 156 -432 620h118q94 -134 372 -536l376 536h114q-108 -154 -430 -618q112 -160 446 -638h-118q-98 138 -390 554q-96 -138 -386 -554h-114z" />
<glyph unicode="Y" horiz-adv-x="1096" d="M38 1252h116q98 -156 396 -624q100 156 396 624h112q-114 -180 -458 -720v-536h-104v536q-114 180 -458 720z" />
<glyph unicode="Z" horiz-adv-x="1062" d="M76 -4v80l768 1080h-758v96h886v-80q-190 -270 -766 -1080h774v-96h-904z" />
<glyph unicode="[" horiz-adv-x="636" d="M162 -176v940v562h420v-92h-324v-1318h324v-92h-420z" />
<glyph unicode="\" horiz-adv-x="626" d="M10 1326h98q128 -376 508 -1502h-98q-126 374 -508 1502z" />
<glyph unicode="]" horiz-adv-x="636" d="M56 -84h322v1318h-322v92h420v-1502h-420v92z" />
<glyph unicode="^" horiz-adv-x="658" d="M52 882q58 92 232 370h88q60 -92 234 -370h-108q-42 66 -170 264l-168 -264h-108z" />
<glyph unicode="_" horiz-adv-x="720" d="M40 -90h160h480v-96h-640v96z" />
<glyph unicode="`" horiz-adv-x="1024" d="M372 1326h110q42 -66 170 -266h-102q-44 66 -178 266z" />
<glyph unicode="a" horiz-adv-x="900" d="M78 262q0 122 98 200t242 78q74 0 144 -30q68 -30 104 -66v162q0 102 -60 164q-62 62 -168 62q-170 0 -220 -154h-102q28 114 114 180q88 64 208 64q152 0 238 -84q88 -86 88 -228v-614h-98v86q-34 -40 -102 -70q-70 -32 -150 -32q-144 0 -240 78q-96 76 -96 204z M174 262q0 -92 72 -144q74 -52 178 -52q82 0 150 38q70 38 92 98v116q-22 60 -92 98q-68 38 -150 38q-104 0 -178 -50q-72 -50 -72 -142z" />
<glyph unicode="b" horiz-adv-x="1008" d="M148 -4v832v498h100v-556q40 62 118 108q76 44 164 44q192 0 296 -136q102 -136 102 -336t-102 -338q-104 -136 -296 -136q-88 0 -164 46q-78 44 -118 108v-134h-100zM248 252q44 -86 118 -134q72 -48 156 -48q140 0 222 106t82 274t-82 274q-82 104 -222 104 q-84 0 -156 -46q-74 -48 -118 -134v-74v-322z" />
<glyph unicode="c" horiz-adv-x="906" d="M80 450q0 210 110 342q112 130 292 130q140 0 232 -76q90 -76 116 -206h-106q-20 90 -82 140q-64 50 -160 50q-134 0 -216 -104q-84 -104 -84 -276t84 -276q82 -106 216 -106q96 0 160 52q62 50 82 140h106q-26 -130 -116 -206q-92 -78 -232 -78q-180 0 -292 132 q-110 130 -110 342z" />
<glyph unicode="d" horiz-adv-x="1008" d="M80 450q0 200 102 336t296 136q88 0 164 -44q76 -46 118 -108v556h100v-1330h-100v134q-42 -64 -118 -108q-76 -46 -164 -46q-194 0 -296 136q-102 138 -102 338zM182 450q0 -168 82 -274t222 -106q84 0 156 48t118 134v396q-46 86 -118 134q-72 46 -156 46 q-140 0 -222 -104q-82 -106 -82 -274z" />
<glyph unicode="e" horiz-adv-x="928" d="M80 450q0 206 110 340q110 132 292 132q176 0 272 -120q96 -122 96 -324v-36h-670q2 -172 86 -274t218 -102q96 0 164 52t90 142h98q-28 -130 -120 -206q-94 -78 -232 -78q-180 0 -292 132q-112 130 -112 342zM184 522h564q-4 130 -72 220t-194 90q-124 0 -202 -84 q-80 -84 -96 -226z" />
<glyph unicode="f" horiz-adv-x="528" d="M46 816v88h146v164q0 124 72 200t184 76q56 0 102 -18v-94q-40 22 -92 22q-72 0 -120 -52q-46 -52 -46 -144v-154h214v-88h-214v-820h-100v820h-146z" />
<glyph unicode="g" horiz-adv-x="1000" d="M80 462q0 194 102 328q100 132 290 132q88 0 162 -44q76 -44 118 -106v132h102v-844q0 -208 -104 -320q-102 -112 -278 -112q-156 0 -252 74q-98 72 -122 204h102q46 -190 272 -190q134 0 206 86q74 86 74 252v96q-42 -62 -118 -106q-74 -42 -162 -42q-190 0 -290 132 q-102 134 -102 328zM182 462q0 -166 80 -268q80 -100 220 -100q84 0 154 46t116 130v382q-46 84 -116 130t-154 46q-140 0 -220 -100q-80 -102 -80 -266z" />
<glyph unicode="h" horiz-adv-x="990" d="M146 -4v832v498h102v-566q44 68 122 116q76 46 168 46q152 0 234 -88q82 -90 82 -236v-602h-100v586q0 112 -58 180q-60 66 -176 66q-90 0 -164 -54q-74 -56 -108 -142v-636h-102z" />
<glyph unicode="i" d="M126 1180q0 30 22 50q20 20 48 20q30 0 50 -20t20 -50q0 -28 -20 -48t-50 -20q-28 0 -48 20q-22 20 -22 48zM146 -4v568v340h102v-908h-102z" />
<glyph unicode="j" d="M-28 -276q14 -6 40 -6q68 0 100 34q34 34 34 122v1030h102v-454v-586q0 -114 -60 -176q-62 -60 -170 -60q-30 0 -46 6v46v44zM126 1180q0 30 22 50q20 20 48 20q30 0 50 -20t20 -50q0 -28 -20 -48t-50 -20q-28 0 -48 20q-22 20 -22 48z" />
<glyph unicode="k" horiz-adv-x="914" d="M146 -4v832v498h102v-860q120 110 482 438h134q-108 -98 -432 -390q112 -130 446 -518h-124q-100 112 -396 454q-28 -26 -110 -102v-352h-102z" />
<glyph unicode="l" d="M146 -4v832v498h102v-998v-332h-102z" />
<glyph unicode="m" horiz-adv-x="1460" d="M146 -4v568v340h102v-138q36 68 106 112q68 44 156 44q190 0 254 -174q40 74 116 124t166 50q134 0 206 -86t72 -226v-614h-102v600q0 108 -48 170q-50 62 -146 62q-82 0 -148 -52q-64 -54 -94 -138v-642h-102v600q0 108 -50 170q-48 62 -144 62q-82 0 -148 -52 q-66 -54 -94 -138v-642h-102z" />
<glyph unicode="n" horiz-adv-x="990" d="M146 -4v568v340h102v-144q44 68 122 116q76 46 168 46q152 0 234 -88q82 -90 82 -236v-602h-100v586q0 112 -58 180q-60 66 -176 66q-90 0 -164 -54q-74 -56 -108 -142v-636h-102z" />
<glyph unicode="o" horiz-adv-x="964" d="M80 450q0 210 110 342q112 130 292 130t292 -130q110 -132 110 -342q0 -212 -110 -342q-112 -132 -292 -132t-292 132q-110 130 -110 342zM182 450q0 -172 82 -278t218 -106t218 106t82 278t-82 278q-82 104 -218 104t-218 -104q-82 -106 -82 -278z" />
<glyph unicode="p" horiz-adv-x="1008" d="M146 -352v786v470h102v-134q40 62 118 108q76 44 164 44q190 0 294 -136t104 -336t-104 -338q-104 -136 -294 -136q-88 0 -164 46q-78 44 -118 108v-482h-102zM248 252q94 -182 272 -182q142 0 224 106t82 274t-82 274q-82 104 -224 104q-178 0 -272 -180v-74v-322z" />
<glyph unicode="q" horiz-adv-x="1008" d="M80 450q0 200 104 336q102 136 294 136q88 0 164 -44q76 -46 118 -108v134h102v-1256h-102v482q-42 -64 -118 -108q-76 -46 -164 -46q-192 0 -294 136q-104 138 -104 338zM182 450q0 -168 82 -274t224 -106q178 0 272 182v396q-94 180 -272 180q-142 0 -224 -104 q-82 -106 -82 -274z" />
<glyph unicode="r" horiz-adv-x="616" d="M146 -4v568v340h102v-144q32 70 98 116t148 46q38 0 80 -12v-100q-40 16 -84 16q-82 0 -146 -52q-64 -54 -96 -144v-634h-102z" />
<glyph unicode="s" horiz-adv-x="818" d="M62 230h102q56 -166 254 -166q98 0 160 44q60 42 60 124q0 116 -166 162q-58 16 -170 48q-216 56 -216 230q0 114 88 182t220 68q138 0 226 -64q86 -66 112 -182h-102q-52 158 -236 158q-90 0 -150 -42t-60 -116q0 -62 38 -94q38 -30 126 -54q54 -16 162 -46 q228 -58 228 -248q0 -120 -90 -188q-90 -70 -232 -70q-140 0 -236 68q-98 68 -118 186z" />
<glyph unicode="t" horiz-adv-x="608" d="M32 816v88h154v234h100v-234h236v-88h-236v-600q0 -148 132 -148q66 0 124 36v-96q-56 -32 -134 -32q-102 0 -162 60q-60 58 -60 170v610h-154z" />
<glyph unicode="u" horiz-adv-x="986" d="M136 302v392v210h100v-588q0 -110 58 -178t174 -68q92 0 164 56t108 142v636h100v-908h-100v144q-46 -70 -122 -116q-76 -48 -168 -48q-150 0 -232 90q-82 88 -82 236z" />
<glyph unicode="v" horiz-adv-x="884" d="M36 904h110q74 -192 298 -768q76 192 300 768h104q-90 -226 -360 -908h-88q-92 226 -364 908z" />
<glyph unicode="w" horiz-adv-x="1236" d="M36 904h102q56 -186 222 -750q54 188 218 750h84q54 -186 216 -750q56 188 224 750h98q-68 -226 -274 -908h-88q-56 188 -220 750q-54 -188 -218 -750h-88q-70 226 -276 908z" />
<glyph unicode="x" horiz-adv-x="882" d="M50 -4q84 114 336 462q-82 112 -322 446h112q66 -92 266 -370q68 92 268 370h110q-82 -110 -322 -442q84 -116 336 -466h-114q-70 96 -280 388q-70 -96 -282 -388h-108z" />
<glyph unicode="y" horiz-adv-x="884" d="M36 904h110q74 -192 298 -770q76 192 300 770h104q-126 -314 -500 -1256h-102q36 90 148 360q-90 224 -358 896z" />
<glyph unicode="z" horiz-adv-x="852" d="M80 -4v70q138 188 554 750h-544v88h672v-72q-138 -186 -554 -748h560v-88h-688z" />
<glyph unicode="{" horiz-adv-x="684" d="M40 528v94h86q86 0 86 92v422q0 84 54 138q52 52 134 52h228v-92h-230q-86 0 -86 -92v-424q0 -94 -82 -144q82 -52 82 -142v-424q0 -92 86 -92h230v-92h-228q-82 0 -134 52q-54 54 -54 138v422q0 92 -86 92h-86z" />
<glyph unicode="|" horiz-adv-x="420" d="M162 -176v940v562h96v-1128v-374h-96z" />
<glyph unicode="}" horiz-adv-x="684" d="M56 -84h230q86 0 86 92v424q0 90 82 142q-82 50 -82 144v424q0 92 -86 92h-230v92h228q82 0 134 -52q54 -54 54 -138v-422q0 -92 86 -92h86v-94h-86q-86 0 -86 -92v-422q0 -84 -54 -138q-52 -52 -134 -52h-228v92z" />
<glyph unicode="~" horiz-adv-x="832" d="M82 444q0 106 50 168q48 64 134 64q70 0 158 -74q88 -72 134 -72q100 0 100 138h92q0 -108 -48 -170t-134 -62q-72 0 -160 74q-88 72 -132 72q-48 0 -76 -36q-26 -38 -26 -102h-92z" />
<glyph unicode="&#xa1;" horiz-adv-x="428" d="M134 984q0 34 22 56t54 22t54 -22t22 -56q0 -32 -22 -56t-54 -24t-54 24t-22 56zM154 -202q4 216 20 864h74q4 -216 20 -864h-114z" />
<glyph unicode="&#xa2;" horiz-adv-x="906" d="M80 470q0 202 100 330q100 130 266 142v176h92v-178q118 -16 192 -90q74 -76 100 -194h-106q-20 92 -82 144q-64 52 -160 52q-134 0 -216 -106q-84 -104 -84 -276t84 -276q82 -104 216 -104q96 0 160 50q62 52 82 144h106q-26 -118 -100 -194t-192 -90v-176h-92v174 q-166 14 -266 142t-100 330z" />
<glyph unicode="&#xa3;" horiz-adv-x="990" d="M64 -4v92h132q52 78 52 186v298h-184v84h184v206q0 188 98 298q96 112 256 112q138 0 222 -74t108 -200h-100q-40 180 -230 180q-116 0 -186 -82t-70 -234v-206h346v-84h-346v-298q0 -122 -50 -186h630v-92h-862z" />
<glyph unicode="&#xa5;" horiz-adv-x="1056" d="M60 1252h114q90 -146 356 -590q90 148 356 590h112q-98 -158 -392 -636h296v-84h-322v-158h322v-84h-322v-294h-102v294h-322v84h322v158h-322v84h294q-98 158 -390 636z" />
<glyph unicode="&#xa7;" horiz-adv-x="908" d="M56 660q0 148 138 222q-36 58 -36 138q0 116 84 184q86 68 214 68q140 0 228 -70q86 -68 110 -186h-100q-48 168 -238 168q-88 0 -144 -42t-56 -118q0 -60 24 -92t86 -76l300 -204q94 -62 140 -120q46 -56 46 -138q0 -74 -38 -132q-38 -60 -100 -90q36 -58 36 -136 q0 -114 -86 -182q-84 -68 -214 -68q-138 0 -226 68t-112 186h100q50 -168 238 -168q88 0 144 44q58 42 58 118q0 60 -24 90t-88 76q-98 68 -298 204q-94 64 -140 120q-46 54 -46 136zM154 662q0 -52 34 -90q36 -38 106 -86q90 -60 356 -246q106 44 106 152q0 38 -22 72 q-24 34 -46 54q-22 18 -74 52q-118 82 -356 244q-104 -40 -104 -152z" />
<glyph unicode="&#xa8;" horiz-adv-x="1024" d="M318 1164q0 30 18 48q20 18 50 18q28 0 46 -20q18 -18 18 -46t-18 -48t-46 -20q-30 0 -50 20q-18 20 -18 48zM574 1164q0 28 18 46q18 20 46 20q30 0 50 -20q18 -18 18 -46t-18 -48q-20 -20 -50 -20q-28 0 -46 20t-18 48z" />
<glyph unicode="&#xa9;" horiz-adv-x="1450" d="M80 624q0 278 188 462q188 186 456 186q272 0 460 -186q188 -184 188 -462t-188 -462q-188 -186 -460 -186q-268 0 -456 186q-188 184 -188 462zM144 624q0 -250 168 -416q170 -166 412 -166q244 0 414 166q168 166 168 416t-168 416q-170 166 -414 166q-242 0 -412 -166 q-168 -166 -168 -416zM374 628q0 182 104 294q102 114 258 114q120 0 200 -66q82 -66 106 -176h-100q-50 150 -206 150q-116 0 -188 -88q-72 -86 -72 -228t72 -228q72 -88 188 -88q156 0 206 150h100q-24 -110 -106 -176q-80 -66 -200 -66q-156 0 -258 114 q-104 112 -104 294z" />
<glyph unicode="&#xaa;" horiz-adv-x="582" d="M34 830q0 84 66 136q66 54 162 54t160 -60v94t-36 100q-38 38 -104 38q-102 0 -132 -92h-88q16 76 76 122q60 48 148 48q106 0 164 -58q60 -58 60 -156v-404h-88v52q-20 -22 -68 -42q-46 -20 -96 -20q-94 0 -158 52q-66 50 -66 136zM124 832q0 -54 44 -86q42 -30 106 -30 q50 0 92 22q42 24 56 58v70q-14 34 -56 56q-42 24 -92 24q-64 0 -106 -30q-44 -30 -44 -84z" />
<glyph unicode="&#xab;" horiz-adv-x="644" d="M52 450q46 70 188 278h100q-48 -70 -188 -278q46 -70 188 -278h-100q-48 68 -188 278zM304 450q46 70 188 278h100q-48 -70 -188 -278q46 -70 188 -278h-100q-48 68 -188 278z" />
<glyph unicode="&#xad;" horiz-adv-x="658" d="M82 480v94h494v-94h-494z" />
<glyph unicode="&#xae;" horiz-adv-x="856" d="M58 896q0 160 108 268t262 108t262 -108t108 -268t-108 -266q-108 -108 -262 -108t-262 108q-108 106 -108 266zM114 896q0 -136 92 -228q90 -92 222 -92t222 92q92 92 92 228q0 138 -92 228q-90 90 -222 90t-222 -90q-92 -90 -92 -228zM290 704v392h160q62 0 100 -32 t38 -88q0 -96 -94 -116l108 -156h-80q-26 38 -102 152h-62v-152h-68zM358 916h94q32 0 50 18t18 42t-18 42t-50 18h-94v-120z" />
<glyph unicode="&#xaf;" horiz-adv-x="1024" d="M306 1094v84h410v-84h-410z" />
<glyph unicode="&#xb0;" horiz-adv-x="648" d="M92 1036q0 98 68 166q68 70 164 70t164 -70q68 -68 68 -166q0 -96 -68 -166q-68 -68 -164 -68t-164 68q-68 70 -68 166zM174 1036q0 -64 44 -108t106 -44q64 0 108 44t44 108t-44 108q-44 46 -108 46q-62 0 -106 -46q-44 -44 -44 -108z" />
<glyph unicode="&#xb1;" horiz-adv-x="1056" d="M150 208v88h758v-88h-758zM150 664v86h336v258h86v-258h336v-86h-336v-258h-86v258h-336z" />
<glyph unicode="&#xb2;" horiz-adv-x="538" d="M48 578v60q56 62 228 250q42 46 60 68q20 22 36 52q18 34 18 62q0 52 -34 82q-32 32 -86 32q-58 0 -92 -38q-34 -36 -38 -98h-92q10 96 68 156q60 60 154 60t150 -52q58 -54 58 -142q0 -40 -24 -84t-42 -66q-16 -20 -68 -74q-58 -64 -176 -190h316v-78h-436z" />
<glyph unicode="&#xb3;" horiz-adv-x="552" d="M44 770h92q20 -124 142 -124q60 0 96 34q36 32 36 90q0 52 -38 86q-38 32 -96 32h-50v72h48q54 0 90 30q36 32 36 84q0 48 -36 80q-34 32 -90 32q-50 0 -86 -32q-34 -32 -44 -86h-88q12 86 70 142q60 54 148 54q96 0 154 -52t58 -136q0 -52 -32 -96q-32 -42 -80 -56 q56 -14 90 -56t34 -98q0 -86 -60 -144t-162 -58q-98 0 -160 54q-62 56 -72 148z" />
<glyph unicode="&#xb4;" horiz-adv-x="1024" d="M372 1060q44 66 170 266h110q-46 -66 -178 -266h-102z" />
<glyph unicode="&#xb6;" horiz-adv-x="914" d="M36 972q0 138 120 208q120 72 280 72h90v-1442h-90v880q-160 0 -280 72q-120 70 -120 210zM664 -190v1442h88v-1442h-88z" />
<glyph unicode="&#xb7;" horiz-adv-x="310" d="M78 530q0 32 22 56t54 24t54 -24q24 -24 24 -56q0 -34 -24 -56q-22 -22 -54 -22t-54 22t-22 56z" />
<glyph unicode="&#xb8;" horiz-adv-x="1024" d="M400 -364q30 66 120 260h98q-30 -64 -124 -260h-94z" />
<glyph unicode="&#xb9;" horiz-adv-x="422" d="M38 1060v92q52 26 208 102h58v-676h-88v572q-44 -22 -178 -90z" />
<glyph unicode="&#xba;" horiz-adv-x="622" d="M34 956q0 138 76 226t202 88q124 0 198 -86q76 -88 76 -228q0 -142 -76 -228q-76 -88 -198 -88q-126 0 -202 88q-76 86 -76 228zM130 956q0 -104 50 -170q50 -64 132 -64t132 64q50 66 50 170t-50 168q-50 66 -132 66t-132 -66q-50 -64 -50 -168z" />
<glyph unicode="&#xbb;" horiz-adv-x="644" d="M52 172q46 68 188 278q-48 70 -188 278h100q46 -70 188 -278q-48 -70 -188 -278h-100zM304 172q46 68 188 278q-48 70 -188 278h100q46 -70 188 -278q-48 -70 -188 -278h-100z" />
<glyph unicode="&#xbc;" horiz-adv-x="1316" d="M96 1060v92q52 26 210 102h56v-676h-90v572q-44 -22 -176 -90zM158 -4q214 314 854 1256h92q-214 -314 -854 -1256h-92zM706 148v68q64 114 250 456h90q-60 -112 -242 -448h214v154h80v-154h118v-76h-118v-152h-80v152h-312z" />
<glyph unicode="&#xbd;" horiz-adv-x="1338" d="M96 1060v92q52 26 210 102h56v-676h-90v572q-44 -22 -176 -90zM158 -4q214 314 854 1256h92q-214 -314 -854 -1256h-92zM786 -4v60l232 248q40 46 60 68q18 22 34 54t16 60q0 54 -32 84q-32 32 -84 32q-58 0 -94 -38t-40 -100h-92q10 98 72 158q60 60 154 60t150 -54 t56 -140q0 -40 -24 -86t-40 -64q-18 -18 -70 -76q-60 -62 -176 -186h316v-80h-438z" />
<glyph unicode="&#xbe;" horiz-adv-x="1402" d="M96 770h92q20 -126 144 -126q60 0 96 34q34 34 34 90q0 54 -38 86q-36 32 -94 32h-52v72h50q52 0 88 30q36 32 36 84q0 50 -34 82q-36 32 -90 32q-52 0 -86 -34q-36 -32 -46 -86h-88q12 88 72 142t148 54q96 0 154 -52q56 -52 56 -136q0 -54 -32 -96q-30 -42 -78 -56 q56 -14 90 -54q32 -42 32 -100q0 -86 -58 -144q-60 -58 -162 -58q-98 0 -162 54q-62 56 -72 150zM242 -4q214 314 854 1256h94q-214 -314 -854 -1256h-94zM790 148v68q62 114 250 456h90q-60 -112 -242 -448h214v154h82v-154h116v-76h-116v-152h-82v152h-312z" />
<glyph unicode="&#xbf;" horiz-adv-x="864" d="M56 122q0 26 6 56q6 28 12 48q6 22 24 50q18 30 24 42q10 16 36 48q28 32 34 38t40 44q34 36 36 38q86 92 88 174h96q-4 -66 -28 -114q-24 -50 -80 -112q-10 -12 -48 -52q-36 -38 -52 -60q-16 -20 -42 -56q-24 -36 -34 -70t-10 -74q0 -114 72 -180t190 -66q128 0 206 80 q76 80 90 218h108q-18 -178 -126 -286t-278 -108q-168 0 -266 94q-98 92 -98 248zM332 984q0 34 22 56t54 22t54 -22q24 -22 24 -56q0 -32 -24 -56q-22 -24 -54 -24t-54 24t-22 56z" />
<glyph unicode="&#xc0;" horiz-adv-x="1186" d="M48 -4l496 1256h98l496 -1256h-104q-40 102 -164 412h-556q-42 -102 -162 -412h-104zM350 504h484q-60 152 -242 614q-60 -154 -242 -614zM358 1596h114q42 -60 170 -238h-106q-44 58 -178 238z" />
<glyph unicode="&#xc1;" horiz-adv-x="1186" d="M48 -4l496 1256h98l496 -1256h-104q-40 102 -164 412h-556q-42 -102 -162 -412h-104zM350 504h484q-60 152 -242 614q-60 -154 -242 -614zM542 1358q42 58 168 238h116q-46 -60 -180 -238h-104z" />
<glyph unicode="&#xc2;" horiz-adv-x="1186" d="M48 -4l496 1256h98l496 -1256h-104q-40 102 -164 412h-556q-42 -102 -162 -412h-104zM350 504h484q-60 152 -242 614q-60 -154 -242 -614zM358 1362q48 60 188 242h90q48 -60 190 -242h-96q-36 42 -138 172q-34 -44 -138 -172h-96z" />
<glyph unicode="&#xc3;" horiz-adv-x="1186" d="M48 -4l496 1256h98l496 -1256h-104q-40 102 -164 412h-556q-42 -102 -162 -412h-104zM336 1364q0 98 36 154q38 58 106 58q56 0 124 -66q66 -64 100 -64q72 0 76 124h72q0 -98 -36 -156q-38 -56 -106 -56q-54 0 -122 64q-68 66 -102 66q-74 0 -74 -124h-74zM350 504h484 q-60 152 -242 614q-60 -154 -242 -614z" />
<glyph unicode="&#xc4;" horiz-adv-x="1186" d="M48 -4l496 1256h98l496 -1256h-104q-40 102 -164 412h-556q-42 -102 -162 -412h-104zM350 504h484q-60 152 -242 614q-60 -154 -242 -614zM400 1460q0 28 18 48q20 20 48 20q30 0 48 -20t18 -48q0 -30 -18 -48q-20 -20 -48 -20t-48 18q-18 20 -18 50zM656 1460 q0 28 18 48t46 20q30 0 50 -20q18 -20 18 -48t-18 -48q-20 -20 -50 -20q-26 0 -46 18q-18 20 -18 50z" />
<glyph unicode="&#xc5;" horiz-adv-x="1186" d="M48 -4l496 1256h98l496 -1256h-104q-40 102 -164 412h-556q-42 -102 -162 -412h-104zM350 504h484q-60 152 -242 614q-60 -154 -242 -614zM426 1486q0 70 48 118t118 48t118 -48t48 -118t-48 -116q-48 -48 -118 -48t-118 48q-48 46 -48 116zM492 1486q0 -40 30 -70 q28 -30 70 -30q40 0 70 30t30 70q0 44 -30 72q-30 30 -70 30q-42 0 -70 -30q-30 -28 -30 -72z" />
<glyph unicode="&#xc6;" horiz-adv-x="1758" d="M48 -4q194 314 782 1256h812v-96h-650v-464h588v-96h-588v-504h650v-96h-754v412h-472q-64 -102 -258 -412h-110zM476 504h412v656q-102 -164 -412 -656z" />
<glyph unicode="&#xc7;" horiz-adv-x="1178" d="M80 624q0 292 158 470t394 178q182 0 304 -98t162 -264h-102q-42 124 -134 194q-94 68 -230 68q-198 0 -322 -148q-124 -150 -124 -400t126 -400q124 -148 320 -148q136 0 230 68q92 70 134 194h102q-40 -166 -164 -264q-122 -98 -302 -98q-236 0 -394 176 q-158 180 -158 472zM474 -364q30 66 120 260h98q-32 -64 -124 -260h-94z" />
<glyph unicode="&#xc8;" horiz-adv-x="1054" d="M162 -4v786v470h780v-96h-678v-464h614v-96h-614v-504h678v-96h-780zM334 1596h112q42 -60 170 -238h-104q-44 58 -178 238z" />
<glyph unicode="&#xc9;" horiz-adv-x="1054" d="M162 -4v786v470h780v-96h-678v-464h614v-96h-614v-504h678v-96h-780zM500 1358q42 58 168 238h114q-44 -60 -180 -238h-102z" />
<glyph unicode="&#xca;" horiz-adv-x="1054" d="M162 -4v786v470h780v-96h-678v-464h614v-96h-614v-504h678v-96h-780zM328 1362q46 60 188 242h90q48 -60 188 -242h-96q-34 42 -136 172q-36 -44 -138 -172h-96z" />
<glyph unicode="&#xcb;" horiz-adv-x="1054" d="M162 -4v786v470h780v-96h-678v-464h614v-96h-614v-504h678v-96h-780zM366 1460q0 28 20 48t48 20t48 -20q18 -20 18 -48q0 -30 -20 -48q-20 -20 -46 -20q-28 0 -48 18q-20 20 -20 50zM622 1460q0 28 20 48q18 20 46 20t48 -20t20 -48t-20 -48t-48 -20q-26 0 -46 18 q-20 20 -20 50z" />
<glyph unicode="&#xcc;" horiz-adv-x="428" d="M-14 1596h112q42 -60 170 -238h-104q-44 58 -178 238zM162 -4v786v470h104v-1256h-104z" />
<glyph unicode="&#xcd;" horiz-adv-x="428" d="M152 1358q42 58 168 238h114q-44 -60 -180 -238h-102zM162 -4v786v470h104v-1256h-104z" />
<glyph unicode="&#xce;" horiz-adv-x="428" d="M-20 1362q46 60 188 242h90q48 -60 188 -242h-96q-34 42 -138 172q-34 -44 -136 -172h-96zM162 -4v786v470h104v-1256h-104z" />
<glyph unicode="&#xcf;" horiz-adv-x="428" d="M18 1460q0 28 20 48t48 20t48 -20q18 -20 18 -48q0 -30 -20 -48q-20 -20 -46 -20q-28 0 -50 18q-18 20 -18 50zM162 -4v786v470h104v-1256h-104zM274 1460q0 28 18 48q20 20 48 20t48 -20t20 -48t-20 -48t-48 -20q-26 0 -48 18q-18 20 -18 50z" />
<glyph unicode="&#xd0;" horiz-adv-x="1262" d="M70 600v92h118v560h384q274 0 442 -170q168 -172 168 -458t-168 -458q-168 -170 -442 -170h-384v604h-118zM292 92h280q230 0 368 144q136 146 136 388t-136 386q-138 146 -368 146h-280v-464h268v-92h-268v-508z" />
<glyph unicode="&#xd1;" horiz-adv-x="1262" d="M162 -4v786v470h100q184 -262 738 -1048v1048h100v-1256h-70q-192 272 -768 1090v-1090h-100zM372 1364q0 98 38 154q36 58 104 58q58 0 124 -66q66 -64 102 -64q72 0 76 124h70q0 -98 -36 -156q-36 -56 -104 -56q-56 0 -124 64q-66 66 -102 66q-74 0 -74 -124h-74z" />
<glyph unicode="&#xd2;" horiz-adv-x="1270" d="M80 624q0 286 156 466q158 182 398 182q244 0 400 -182q158 -180 158 -466t-156 -468q-158 -180 -402 -180q-240 0 -398 180q-156 182 -156 468zM186 624q0 -244 126 -396q124 -152 322 -152q202 0 326 150q126 154 126 398t-126 396q-124 152 -326 152q-198 0 -322 -152 q-126 -152 -126 -396zM408 1596h112q42 -60 170 -238h-104q-44 58 -178 238z" />
<glyph unicode="&#xd3;" horiz-adv-x="1270" d="M80 624q0 286 156 466q158 182 398 182q244 0 400 -182q158 -180 158 -466t-156 -468q-158 -180 -402 -180q-240 0 -398 180q-156 182 -156 468zM186 624q0 -244 126 -396q124 -152 322 -152q202 0 326 150q126 154 126 398t-126 396q-124 152 -326 152q-198 0 -322 -152 q-126 -152 -126 -396zM574 1358q42 58 168 238h114q-44 -60 -180 -238h-102z" />
<glyph unicode="&#xd4;" horiz-adv-x="1270" d="M80 624q0 286 156 466q158 182 398 182q244 0 400 -182q158 -180 158 -466t-156 -468q-158 -180 -402 -180q-240 0 -398 180q-156 182 -156 468zM186 624q0 -244 126 -396q124 -152 322 -152q202 0 326 150q126 154 126 398t-126 396q-124 152 -326 152q-198 0 -322 -152 q-126 -152 -126 -396zM402 1362q46 60 188 242h90q48 -60 188 -242h-96q-34 42 -138 172q-34 -44 -136 -172h-96z" />
<glyph unicode="&#xd5;" horiz-adv-x="1270" d="M80 624q0 286 156 466q158 182 398 182q244 0 400 -182q158 -180 158 -466t-156 -468q-158 -180 -402 -180q-240 0 -398 180q-156 182 -156 468zM186 624q0 -244 126 -396q124 -152 322 -152q202 0 326 150q126 154 126 398t-126 396q-124 152 -326 152q-198 0 -322 -152 q-126 -152 -126 -396zM378 1364q0 98 38 154q36 58 104 58q58 0 124 -66q66 -64 102 -64q72 0 76 124h70q0 -98 -36 -156q-36 -56 -104 -56q-56 0 -124 64q-66 66 -102 66q-74 0 -74 -124h-74z" />
<glyph unicode="&#xd6;" horiz-adv-x="1270" d="M80 624q0 286 156 466q158 182 398 182q244 0 400 -182q158 -180 158 -466t-156 -468q-158 -180 -402 -180q-240 0 -398 180q-156 182 -156 468zM186 624q0 -244 126 -396q124 -152 322 -152q202 0 326 150q126 154 126 398t-126 396q-124 152 -326 152q-198 0 -322 -152 q-126 -152 -126 -396zM440 1460q0 28 20 48t48 20t48 -20q18 -20 18 -48q0 -30 -20 -48q-20 -20 -46 -20q-28 0 -50 18q-18 20 -18 50zM696 1460q0 28 18 48q20 20 48 20t48 -20t20 -48t-20 -48t-48 -20q-26 0 -48 18q-18 20 -18 50z" />
<glyph unicode="&#xd7;" horiz-adv-x="906" d="M146 344l250 250q-64 62 -250 250q14 14 60 58q62 -62 246 -250q62 64 246 250q16 -14 62 -58q-62 -64 -246 -250q62 -64 246 -250q-16 -16 -62 -60q-62 62 -246 248q-60 -62 -246 -248z" />
<glyph unicode="&#xd8;" horiz-adv-x="1290" d="M90 624q0 286 156 466q158 182 400 182q214 0 362 -142q36 44 106 130q16 -12 66 -48q-30 -36 -118 -144q140 -178 140 -444q0 -286 -156 -468q-158 -180 -400 -180q-208 0 -356 136q-40 -50 -122 -152q-16 12 -66 50q34 40 132 162q-144 180 -144 452zM196 624 q0 -224 104 -370q214 266 644 798q-120 120 -298 120q-200 0 -324 -152q-126 -152 -126 -396zM352 190q120 -114 294 -114q200 0 324 152q126 152 126 396q0 216 -98 362q-216 -266 -646 -796z" />
<glyph unicode="&#xd9;" horiz-adv-x="1240" d="M138 490v328v434h104v-746q0 -214 104 -324q102 -110 272 -110t274 110q106 110 106 324v746h104v-762q0 -250 -136 -382q-134 -132 -348 -132q-212 0 -346 132t-134 382zM392 1596h112q42 -60 170 -238h-104q-46 58 -178 238z" />
<glyph unicode="&#xda;" horiz-adv-x="1240" d="M138 490v328v434h104v-746q0 -214 104 -324q102 -110 272 -110t274 110q106 110 106 324v746h104v-762q0 -250 -136 -382q-134 -132 -348 -132q-212 0 -346 132t-134 382zM558 1358q42 58 166 238h116q-46 -60 -180 -238h-102z" />
<glyph unicode="&#xdb;" horiz-adv-x="1240" d="M138 490v328v434h104v-746q0 -214 104 -324q102 -110 272 -110t274 110q106 110 106 324v746h104v-762q0 -250 -136 -382q-134 -132 -348 -132q-212 0 -346 132t-134 382zM388 1362q46 60 188 242h90q46 -60 188 -242h-96q-34 42 -138 172q-34 -44 -136 -172h-96z" />
<glyph unicode="&#xdc;" horiz-adv-x="1240" d="M138 490v328v434h104v-746q0 -214 104 -324q102 -110 272 -110t274 110q106 110 106 324v746h104v-762q0 -250 -136 -382q-134 -132 -348 -132q-212 0 -346 132t-134 382zM426 1460q0 28 20 48q18 20 48 20q28 0 46 -20q20 -20 20 -48q0 -30 -20 -48q-20 -20 -46 -20 q-30 0 -50 18q-18 20 -18 50zM682 1460q0 28 18 48t48 20q28 0 48 -20t20 -48t-22 -48q-20 -20 -46 -20q-28 0 -46 20q-20 18 -20 48z" />
<glyph unicode="&#xdd;" horiz-adv-x="1096" d="M38 1252h116q98 -156 396 -624q100 156 396 624h112q-114 -180 -458 -720v-536h-104v536q-114 180 -458 720zM486 1358q42 58 168 238h114q-46 -60 -180 -238h-102z" />
<glyph unicode="&#xde;" horiz-adv-x="1084" d="M162 -4v786v470h104v-256h350q186 0 292 -92t106 -264q0 -174 -106 -266t-292 -92h-350v-286h-104zM266 378h346q146 0 222 68q76 70 76 194q0 126 -76 194t-222 68h-346v-524z" />
<glyph unicode="&#xdf;" horiz-adv-x="1026" d="M146 -4v340v616q0 174 94 284q94 108 266 108q152 0 240 -88q90 -90 90 -220q0 -106 -58 -180q-58 -72 -144 -104q128 -18 218 -116q92 -98 92 -256q0 -184 -106 -292t-276 -108q-112 0 -194 48v98q78 -54 190 -54q132 0 208 82q78 82 78 230q0 150 -98 234 q-96 84 -254 84h-88v90h88q106 0 176 68q70 70 70 172q0 96 -64 160q-62 62 -168 62q-126 0 -192 -82q-68 -84 -68 -220v-956h-100z" />
<glyph unicode="&#xe0;" horiz-adv-x="900" d="M78 262q0 122 98 200t242 78q74 0 144 -30q68 -30 104 -66v162q0 102 -60 164q-62 62 -168 62q-170 0 -220 -154h-102q28 114 114 180q88 64 208 64q152 0 238 -84q88 -86 88 -228v-614h-98v86q-34 -40 -102 -70q-70 -32 -150 -32q-144 0 -240 78q-96 76 -96 204z M174 262q0 -92 72 -144q74 -52 178 -52q82 0 150 38q70 38 92 98v116q-22 60 -92 98q-68 38 -150 38q-104 0 -178 -50q-72 -50 -72 -142zM240 1326h108q42 -66 170 -266h-100q-44 66 -178 266z" />
<glyph unicode="&#xe1;" horiz-adv-x="900" d="M78 262q0 122 98 200t242 78q74 0 144 -30q68 -30 104 -66v162q0 102 -60 164q-62 62 -168 62q-170 0 -220 -154h-102q28 114 114 180q88 64 208 64q152 0 238 -84q88 -86 88 -228v-614h-98v86q-34 -40 -102 -70q-70 -32 -150 -32q-144 0 -240 78q-96 76 -96 204z M174 262q0 -92 72 -144q74 -52 178 -52q82 0 150 38q70 38 92 98v116q-22 60 -92 98q-68 38 -150 38q-104 0 -178 -50q-72 -50 -72 -142zM398 1060q42 66 170 266h108q-44 -66 -178 -266h-100z" />
<glyph unicode="&#xe2;" horiz-adv-x="900" d="M78 262q0 122 98 200t242 78q74 0 144 -30q68 -30 104 -66v162q0 102 -60 164q-62 62 -168 62q-170 0 -220 -154h-102q28 114 114 180q88 64 208 64q152 0 238 -84q88 -86 88 -228v-614h-98v86q-34 -40 -102 -70q-70 -32 -150 -32q-144 0 -240 78q-96 76 -96 204z M174 262q0 -92 72 -144q74 -52 178 -52q82 0 150 38q70 38 92 98v116q-22 60 -92 98q-68 38 -150 38q-104 0 -178 -50q-72 -50 -72 -142zM224 1046q46 66 188 268h90q46 -66 188 -268h-94q-34 50 -140 198q-34 -50 -138 -198h-94z" />
<glyph unicode="&#xe3;" horiz-adv-x="900" d="M78 262q0 122 98 200t242 78q74 0 144 -30q68 -30 104 -66v162q0 102 -60 164q-62 62 -168 62q-170 0 -220 -154h-102q28 114 114 180q88 64 208 64q152 0 238 -84q88 -86 88 -228v-614h-98v86q-34 -40 -102 -70q-70 -32 -150 -32q-144 0 -240 78q-96 76 -96 204z M174 262q0 -92 72 -144q74 -52 178 -52q82 0 150 38q70 38 92 98v116q-22 60 -92 98q-68 38 -150 38q-104 0 -178 -50q-72 -50 -72 -142zM204 1066q0 98 36 156q36 60 104 60q58 0 122 -68q66 -66 100 -66t54 36q18 34 18 92h72q0 -100 -36 -158t-102 -58q-56 0 -122 66 q-68 68 -100 68q-74 0 -74 -128h-72z" />
<glyph unicode="&#xe4;" horiz-adv-x="900" d="M78 262q0 122 98 200t242 78q74 0 144 -30q68 -30 104 -66v162q0 102 -60 164q-62 62 -168 62q-170 0 -220 -154h-102q28 114 114 180q88 64 208 64q152 0 238 -84q88 -86 88 -228v-614h-98v86q-34 -40 -102 -70q-70 -32 -150 -32q-144 0 -240 78q-96 76 -96 204z M174 262q0 -92 72 -144q74 -52 178 -52q82 0 150 38q70 38 92 98v116q-22 60 -92 98q-68 38 -150 38q-104 0 -178 -50q-72 -50 -72 -142zM262 1164q0 30 20 48t48 18q26 0 46 -20q20 -18 20 -46t-20 -48q-18 -20 -46 -20t-48 20t-20 48zM518 1164q0 28 20 46q20 20 46 20 q28 0 48 -20q20 -18 20 -46t-20 -48t-48 -20t-48 20q-18 20 -18 48z" />
<glyph unicode="&#xe5;" horiz-adv-x="900" d="M78 262q0 122 98 200t242 78q74 0 144 -30q68 -30 104 -66v162q0 102 -60 164q-62 62 -168 62q-170 0 -220 -154h-102q28 114 114 180q88 64 208 64q152 0 238 -84q88 -86 88 -228v-614h-98v86q-34 -40 -102 -70q-70 -32 -150 -32q-144 0 -240 78q-96 76 -96 204z M174 262q0 -92 72 -144q74 -52 178 -52q82 0 150 38q70 38 92 98v116q-22 60 -92 98q-68 38 -150 38q-104 0 -178 -50q-72 -50 -72 -142zM286 1184q0 68 48 116t118 48t118 -48t48 -116q0 -70 -48 -118t-118 -48t-118 48t-48 118zM352 1184q0 -44 30 -72q30 -30 70 -30 q42 0 72 30q28 28 28 72q0 42 -28 70q-30 30 -72 30q-40 0 -70 -30q-30 -28 -30 -70z" />
<glyph unicode="&#xe6;" horiz-adv-x="1498" d="M70 250q0 124 98 198q98 76 244 76h248v82q0 102 -60 164q-62 62 -168 62q-172 0 -224 -154h-98q28 114 114 180q88 64 208 64q114 0 192 -54t106 -148q112 202 320 202q178 0 276 -120q96 -122 96 -324v-36h-670q2 -174 84 -274q84 -102 216 -102q98 0 166 52 q66 52 88 142h98q-26 -130 -118 -206q-92 -78 -234 -78q-228 0 -340 214q-114 -210 -332 -210q-134 0 -222 74t-88 196zM168 254q0 -90 62 -140q60 -48 156 -48q102 0 174 60q70 60 100 152v162h-244q-104 0 -176 -48t-72 -138zM754 522h562q-4 130 -70 220t-196 90 q-122 0 -202 -84t-94 -226z" />
<glyph unicode="&#xe7;" horiz-adv-x="906" d="M80 450q0 210 110 342q112 130 292 130q140 0 232 -76q90 -76 116 -206h-106q-20 90 -82 140q-64 50 -160 50q-134 0 -216 -104q-84 -104 -84 -276t84 -276q82 -106 216 -106q96 0 160 52q62 50 82 140h106q-26 -130 -116 -206q-92 -78 -232 -78q-180 0 -292 132 q-110 130 -110 342zM322 -364q30 66 120 260h98q-30 -64 -124 -260h-94z" />
<glyph unicode="&#xe8;" horiz-adv-x="928" d="M80 450q0 206 110 340q110 132 292 132q176 0 272 -120q96 -122 96 -324v-36h-670q2 -172 86 -274t218 -102q96 0 164 52t90 142h98q-28 -130 -120 -206q-94 -78 -232 -78q-180 0 -292 132q-112 130 -112 342zM184 522h564q-4 130 -72 220t-194 90q-124 0 -202 -84 q-80 -84 -96 -226zM262 1326h108q44 -66 170 -266h-100q-44 66 -178 266z" />
<glyph unicode="&#xe9;" horiz-adv-x="928" d="M80 450q0 206 110 340q110 132 292 132q176 0 272 -120q96 -122 96 -324v-36h-670q2 -172 86 -274t218 -102q96 0 164 52t90 142h98q-28 -130 -120 -206q-94 -78 -232 -78q-180 0 -292 132q-112 130 -112 342zM184 522h564q-4 130 -72 220t-194 90q-124 0 -202 -84 q-80 -84 -96 -226zM426 1060q42 66 170 266h108q-44 -66 -178 -266h-100z" />
<glyph unicode="&#xea;" horiz-adv-x="928" d="M80 450q0 206 110 340q110 132 292 132q176 0 272 -120q96 -122 96 -324v-36h-670q2 -172 86 -274t218 -102q96 0 164 52t90 142h98q-28 -130 -120 -206q-94 -78 -232 -78q-180 0 -292 132q-112 130 -112 342zM184 522h564q-4 130 -72 220t-194 90q-124 0 -202 -84 q-80 -84 -96 -226zM252 1046q48 66 188 268h90q48 -66 188 -268h-94q-34 50 -138 198q-36 -50 -140 -198h-94z" />
<glyph unicode="&#xeb;" horiz-adv-x="928" d="M80 450q0 206 110 340q110 132 292 132q176 0 272 -120q96 -122 96 -324v-36h-670q2 -172 86 -274t218 -102q96 0 164 52t90 142h98q-28 -130 -120 -206q-94 -78 -232 -78q-180 0 -292 132q-112 130 -112 342zM184 522h564q-4 130 -72 220t-194 90q-124 0 -202 -84 q-80 -84 -96 -226zM292 1164q0 30 20 48t48 18q30 0 48 -20q18 -18 18 -46t-18 -48t-48 -20q-28 0 -48 20t-20 48zM548 1164q0 28 20 46q18 20 46 20q30 0 48 -20q20 -18 20 -46t-20 -48q-18 -20 -48 -20q-28 0 -46 20q-20 20 -20 48z" />
<glyph unicode="&#xec;" d="M-26 1326h108q42 -66 170 -266h-100q-44 66 -178 266zM146 -4v568v340h102v-908h-102z" />
<glyph unicode="&#xed;" d="M138 1060q42 66 170 266h108q-44 -66 -178 -266h-100zM146 -4v568v340h102v-908h-102z" />
<glyph unicode="&#xee;" d="M4 1046q36 66 148 268h90q36 -66 148 -268h-90l-104 192q-24 -48 -102 -192h-90zM146 -4v568v340h102v-908h-102z" />
<glyph unicode="&#xef;" d="M20 1164q0 28 20 46q20 20 48 20t48 -20q20 -18 20 -46t-20 -48t-48 -20t-48 20t-20 48zM146 -4v568v340h102v-908h-102zM240 1164q0 28 20 46q18 20 46 20t48 -18q18 -18 18 -48q0 -28 -18 -48q-20 -20 -48 -20q-30 0 -48 20t-18 48z" />
<glyph unicode="&#xf0;" horiz-adv-x="964" d="M80 448q0 210 110 340t286 130q146 0 244 -118h4q-64 150 -208 300l-234 -78q-6 16 -26 68q50 18 200 66q-94 88 -200 162v8h130q92 -64 166 -138q56 18 166 54q6 -16 26 -68q-34 -10 -134 -44q274 -306 274 -676q0 -214 -110 -346q-112 -132 -292 -132t-292 132 q-110 130 -110 340zM182 448q0 -170 82 -276t218 -106t218 106q82 104 82 276t-82 276t-218 104t-218 -104t-82 -276z" />
<glyph unicode="&#xf1;" horiz-adv-x="990" d="M146 -4v568v340h102v-144q44 68 122 116q76 46 168 46q152 0 234 -88q82 -90 82 -236v-602h-100v586q0 112 -58 180q-60 66 -176 66q-90 0 -164 -54q-74 -56 -108 -142v-636h-102zM248 1066q0 98 36 156q36 60 104 60q44 0 84 -34q40 -32 72 -68q36 -32 64 -32 q36 0 54 36q20 34 20 92h72q0 -100 -36 -158t-104 -58q-54 0 -122 66q-66 68 -98 68q-74 0 -74 -128h-72z" />
<glyph unicode="&#xf2;" horiz-adv-x="964" d="M80 450q0 210 110 342q112 130 292 130t292 -130q110 -132 110 -342q0 -212 -110 -342q-112 -132 -292 -132t-292 132q-110 130 -110 342zM182 450q0 -172 82 -278t218 -106t218 106t82 278t-82 278q-82 104 -218 104t-218 -104q-82 -106 -82 -278zM258 1326h108 q44 -66 170 -266h-100q-44 66 -178 266z" />
<glyph unicode="&#xf3;" horiz-adv-x="964" d="M80 450q0 210 110 342q112 130 292 130t292 -130q110 -132 110 -342q0 -212 -110 -342q-112 -132 -292 -132t-292 132q-110 130 -110 342zM182 450q0 -172 82 -278t218 -106t218 106t82 278t-82 278q-82 104 -218 104t-218 -104q-82 -106 -82 -278zM422 1060 q42 66 170 266h108q-44 -66 -178 -266h-100z" />
<glyph unicode="&#xf4;" horiz-adv-x="964" d="M80 450q0 210 110 342q112 130 292 130t292 -130q110 -132 110 -342q0 -212 -110 -342q-112 -132 -292 -132t-292 132q-110 130 -110 342zM182 450q0 -172 82 -278t218 -106t218 106t82 278t-82 278q-82 104 -218 104t-218 -104q-82 -106 -82 -278zM248 1046 q46 66 188 268h90q48 -66 188 -268h-94q-34 50 -138 198q-36 -50 -140 -198h-94z" />
<glyph unicode="&#xf5;" horiz-adv-x="964" d="M80 450q0 210 110 342q112 130 292 130t292 -130q110 -132 110 -342q0 -212 -110 -342q-112 -132 -292 -132t-292 132q-110 130 -110 342zM182 450q0 -172 82 -278t218 -106t218 106t82 278t-82 278q-82 104 -218 104t-218 -104q-82 -106 -82 -278zM230 1066q0 98 36 156 q36 60 102 60q58 0 124 -68q66 -66 98 -66q34 0 54 36q20 34 20 92h72q0 -100 -36 -158t-104 -58q-56 0 -122 66q-66 68 -100 68q-72 0 -72 -128h-72z" />
<glyph unicode="&#xf6;" horiz-adv-x="964" d="M80 450q0 210 110 342q112 130 292 130t292 -130q110 -132 110 -342q0 -212 -110 -342q-112 -132 -292 -132t-292 132q-110 130 -110 342zM182 450q0 -172 82 -278t218 -106t218 106t82 278t-82 278q-82 104 -218 104t-218 -104q-82 -106 -82 -278zM288 1164q0 30 20 48 t48 18q30 0 48 -20q18 -18 18 -46t-18 -48t-48 -20q-28 0 -48 20t-20 48zM544 1164q0 28 20 46q18 20 46 20t48 -20q20 -18 20 -46t-20 -48t-48 -20t-46 20q-20 20 -20 48z" />
<glyph unicode="&#xf7;" horiz-adv-x="1052" d="M146 554v88h762v-88h-762zM450 286q0 30 24 54q22 22 52 22t52 -22q22 -24 22 -54q0 -32 -22 -54q-20 -22 -52 -22q-30 0 -52 22q-24 22 -24 54zM450 910q0 34 24 56q22 22 52 22t52 -22t22 -56q0 -30 -22 -52t-52 -22t-52 22q-24 22 -24 52z" />
<glyph unicode="&#xf8;" horiz-adv-x="986" d="M90 -6q26 30 100 126q-100 126 -100 330q0 210 110 342q112 130 292 130q146 0 252 -92q28 38 86 112q14 -12 58 -44q-22 -30 -94 -120q100 -130 100 -328q0 -212 -110 -342q-112 -132 -292 -132q-146 0 -252 90q-30 -38 -90 -116q-16 10 -60 44zM190 450q0 -156 62 -250 q144 186 434 558q-80 74 -194 74q-136 0 -218 -104q-84 -106 -84 -278zM300 142q74 -76 192 -76q136 0 220 106q82 106 82 278q0 148 -60 248q-146 -186 -434 -556z" />
<glyph unicode="&#xf9;" horiz-adv-x="986" d="M136 302v392v210h100v-588q0 -110 58 -178t174 -68q92 0 164 56t108 142v636h100v-908h-100v144q-46 -70 -122 -116q-76 -48 -168 -48q-150 0 -232 90q-82 88 -82 236zM266 1326h108q44 -66 170 -266h-100q-44 66 -178 266z" />
<glyph unicode="&#xfa;" horiz-adv-x="986" d="M136 302v392v210h100v-588q0 -110 58 -178t174 -68q92 0 164 56t108 142v636h100v-908h-100v144q-46 -70 -122 -116q-76 -48 -168 -48q-150 0 -232 90q-82 88 -82 236zM430 1060q42 66 170 266h108q-44 -66 -178 -266h-100z" />
<glyph unicode="&#xfb;" horiz-adv-x="986" d="M136 302v392v210h100v-588q0 -110 58 -178t174 -68q92 0 164 56t108 142v636h100v-908h-100v144q-46 -70 -122 -116q-76 -48 -168 -48q-150 0 -232 90q-82 88 -82 236zM256 1046q48 66 188 268h90q48 -66 188 -268h-94q-34 50 -138 198q-36 -50 -140 -198h-94z" />
<glyph unicode="&#xfc;" horiz-adv-x="986" d="M136 302v392v210h100v-588q0 -110 58 -178t174 -68q92 0 164 56t108 142v636h100v-908h-100v144q-46 -70 -122 -116q-76 -48 -168 -48q-150 0 -232 90q-82 88 -82 236zM294 1164q0 30 20 48t48 18t46 -20q20 -18 20 -46t-18 -48t-48 -20q-28 0 -48 20t-20 48zM550 1164 q0 28 20 46q20 20 46 20q30 0 48 -20q20 -18 20 -46t-20 -48q-18 -20 -48 -20q-28 0 -46 20q-20 20 -20 48z" />
<glyph unicode="&#xfd;" horiz-adv-x="884" d="M36 904h110q74 -192 298 -770q76 192 300 770h104q-126 -314 -500 -1256h-102q36 90 148 360q-90 224 -358 896zM382 1060q44 66 170 266h110q-46 -66 -178 -266h-102z" />
<glyph unicode="&#xfe;" horiz-adv-x="1008" d="M146 -352v1050v628h102v-556q40 62 118 108q76 44 164 44q190 0 294 -136t104 -336t-104 -338q-104 -136 -294 -136q-88 0 -164 46q-78 44 -118 108v-482h-102zM248 252q94 -182 272 -182q142 0 224 106t82 274t-82 274q-82 104 -224 104q-178 0 -272 -180v-74v-322z" />
<glyph unicode="&#xff;" horiz-adv-x="884" d="M36 904h110q74 -192 298 -770q76 192 300 770h104q-126 -314 -500 -1256h-102q36 90 148 360q-90 224 -358 896zM250 1164q0 30 20 48q18 18 48 18q26 0 46 -20q18 -18 18 -46t-18 -48t-46 -20q-30 0 -48 20q-20 20 -20 48zM506 1164q0 28 20 46q18 20 46 20t48 -20 q18 -18 18 -46t-18 -48q-20 -20 -48 -20q-30 0 -48 20t-18 48z" />
<glyph unicode="&#x152;" horiz-adv-x="1720" d="M80 624q0 286 168 458q168 170 442 170h916v-96h-650v-464h586v-96h-586v-504h650v-96h-916q-274 0 -442 170q-168 172 -168 458zM184 624q0 -242 138 -388q136 -144 366 -144h164v1064h-164q-230 0 -366 -146q-138 -144 -138 -386z" />
<glyph unicode="&#x153;" horiz-adv-x="1624" d="M80 450q0 210 110 342q112 130 292 130q118 0 210 -64q90 -64 138 -174q46 110 136 174t212 64q176 0 274 -122q96 -122 96 -322v-36h-670q2 -172 86 -274q82 -102 216 -102q96 0 164 52q70 52 90 142h98q-26 -130 -120 -206q-94 -78 -232 -78q-120 0 -210 62 q-92 62 -140 172q-50 -108 -140 -170q-92 -64 -208 -64q-180 0 -292 132q-110 130 -110 342zM182 450q0 -172 82 -278t218 -106t218 106t82 278t-82 278q-82 104 -218 104t-218 -104q-82 -106 -82 -278zM880 522h564q-4 130 -70 220q-68 90 -196 90q-124 0 -202 -84 q-78 -86 -96 -226z" />
<glyph unicode="&#x178;" horiz-adv-x="1096" d="M38 1252h116q98 -156 396 -624q100 156 396 624h112q-114 -180 -458 -720v-536h-104v536q-114 180 -458 720zM354 1460q0 28 20 48t48 20t46 -20q20 -20 20 -48q0 -30 -20 -48q-20 -20 -46 -20q-28 0 -50 18q-18 20 -18 50zM610 1460q0 28 18 48q20 20 48 20t48 -20 t20 -48t-20 -48t-48 -20q-26 0 -48 18q-18 20 -18 50z" />
<glyph unicode="&#x2c6;" horiz-adv-x="1024" d="M278 1046q48 66 188 268h92q46 -66 188 -268h-94q-36 50 -140 198q-34 -50 -140 -198h-94z" />
<glyph unicode="&#x2dc;" horiz-adv-x="1024" d="M258 1066q0 98 36 156q36 60 104 60q56 0 122 -68q66 -66 98 -66q36 0 54 36q20 34 20 92h72q0 -100 -36 -158t-104 -58q-54 0 -122 66q-66 68 -98 68q-74 0 -74 -128h-72z" />
<glyph unicode="&#x2000;" horiz-adv-x="826" />
<glyph unicode="&#x2001;" horiz-adv-x="1652" />
<glyph unicode="&#x2002;" horiz-adv-x="826" />
<glyph unicode="&#x2003;" horiz-adv-x="1652" />
<glyph unicode="&#x2004;" horiz-adv-x="550" />
<glyph unicode="&#x2005;" horiz-adv-x="413" />
<glyph unicode="&#x2006;" horiz-adv-x="275" />
<glyph unicode="&#x2007;" horiz-adv-x="275" />
<glyph unicode="&#x2008;" horiz-adv-x="206" />
<glyph unicode="&#x2009;" horiz-adv-x="330" />
<glyph unicode="&#x200a;" horiz-adv-x="91" />
<glyph unicode="&#x2010;" horiz-adv-x="658" d="M82 480v94h494v-94h-494z" />
<glyph unicode="&#x2011;" horiz-adv-x="658" d="M82 480v94h494v-94h-494z" />
<glyph unicode="&#x2012;" horiz-adv-x="658" d="M82 480v94h494v-94h-494z" />
<glyph unicode="&#x2013;" horiz-adv-x="972" d="M82 484v84h808v-84h-808z" />
<glyph unicode="&#x2014;" horiz-adv-x="1732" d="M82 484v84h1568v-84h-1568z" />
<glyph unicode="&#x2018;" horiz-adv-x="288" d="M52 984q0 42 28 90q32 60 96 178h72q-26 -50 -106 -198q62 -10 62 -74q0 -32 -20 -56q-22 -22 -54 -22q-36 0 -58 22q-20 24 -20 60z" />
<glyph unicode="&#x2019;" horiz-adv-x="288" d="M40 920q28 50 108 200q-64 10 -64 74q0 32 22 54q20 24 54 24t56 -24q22 -22 22 -58q0 -40 -30 -90l-96 -180h-72z" />
<glyph unicode="&#x201a;" horiz-adv-x="258" d="M40 -206q28 50 108 200q-64 10 -64 72q0 34 22 56q20 22 54 22t56 -22t22 -60q0 -40 -30 -90q-32 -58 -96 -178h-72z" />
<glyph unicode="&#x201c;" horiz-adv-x="540" d="M52 984q0 42 28 90q32 60 96 178h72q-26 -50 -106 -198q62 -10 62 -74q0 -32 -20 -56q-22 -22 -54 -22q-36 0 -58 22q-20 24 -20 60zM304 984q0 42 28 90q32 60 96 178h72q-26 -50 -106 -198q62 -10 62 -74q0 -32 -20 -56q-22 -22 -56 -22t-56 22q-20 24 -20 60z" />
<glyph unicode="&#x201d;" horiz-adv-x="540" d="M40 920q28 50 108 200q-64 10 -64 74q0 32 22 54q20 24 54 24t56 -24q22 -22 22 -58q0 -40 -30 -90l-96 -180h-72zM292 920q28 50 108 200q-64 10 -64 74q0 32 22 54q20 24 54 24t56 -24q22 -22 22 -58q0 -40 -30 -90l-96 -180h-72z" />
<glyph unicode="&#x201e;" horiz-adv-x="540" d="M40 -206q28 50 108 200q-64 10 -64 72q0 34 22 56q20 22 54 22t56 -22t22 -60q0 -40 -30 -90q-32 -58 -96 -178h-72zM292 -206q28 50 108 200q-64 10 -64 72q0 34 22 56q20 22 54 22t56 -22t22 -60q0 -40 -30 -90q-32 -58 -96 -178h-72z" />
<glyph unicode="&#x2022;" horiz-adv-x="680" d="M78 528q0 114 76 188t186 74q112 0 188 -74t76 -188q0 -116 -76 -188q-76 -74 -188 -74q-110 0 -186 74q-76 72 -76 188z" />
<glyph unicode="&#x2026;" horiz-adv-x="946" d="M68 66q0 34 22 58q22 22 54 22t54 -22q24 -24 24 -58q0 -32 -24 -54q-22 -22 -54 -22t-54 22t-22 54zM396 66q0 34 22 58q22 22 56 22q30 0 52 -22q22 -24 22 -58q0 -32 -22 -54t-52 -22q-34 0 -56 22t-22 54zM724 66q0 34 24 58q22 22 52 22q34 0 56 -22q22 -24 22 -58 q0 -32 -22 -54t-56 -22q-30 0 -52 22q-24 22 -24 54z" />
<glyph unicode="&#x202f;" horiz-adv-x="330" />
<glyph unicode="&#x2039;" d="M52 450q46 70 188 278h102q-48 -70 -188 -278q46 -70 188 -278h-102q-48 68 -188 278z" />
<glyph unicode="&#x203a;" d="M52 172q46 68 188 278q-48 70 -188 278h102q46 -70 188 -278q-48 -70 -188 -278h-102z" />
<glyph unicode="&#x205f;" horiz-adv-x="413" />
<glyph unicode="&#x20ac;" horiz-adv-x="1104" d="M60 456v84h116q-2 26 -2 84q0 50 2 74h-116v84h124q36 226 162 358q128 132 306 132q146 0 250 -94q104 -92 138 -248h-98q-32 116 -108 182q-74 64 -182 64q-140 0 -236 -104q-96 -106 -126 -290h454q-6 -22 -20 -84h-444q-2 -24 -2 -74q0 -58 2 -84h420q-4 -22 -18 -84 h-390q32 -180 126 -282q96 -104 234 -104q108 0 182 66q76 66 108 182h98q-34 -156 -138 -250q-104 -92 -250 -92q-176 0 -302 128t-164 352h-126z" />
<glyph unicode="&#x2122;" horiz-adv-x="1176" d="M32 1186v66h432v-66h-176v-454h-80v454h-176zM558 732v520h94q42 -102 168 -414q40 104 166 414h94v-520h-78v386q-40 -96 -156 -386h-58q-38 96 -156 386v-386h-74z" />
<glyph unicode="&#x25fc;" horiz-adv-x="900" d="M0 0v900h900v-900h-900z" />
<glyph unicode="&#xfb01;" horiz-adv-x="922" d="M46 816v88h146v164q0 124 72 200t184 76q56 0 102 -18v-94q-40 22 -92 22q-72 0 -120 -52q-46 -52 -46 -144v-154h214v-88h-214v-820h-100v820h-146zM656 1180q0 30 20 50t48 20q30 0 50 -20t20 -50q0 -28 -20 -48t-50 -20q-28 0 -48 20t-20 48zM674 -4v908h102v-908 h-102z" />
<glyph unicode="&#xfb02;" horiz-adv-x="922" d="M46 816v88h146v164q0 124 72 200t184 76q56 0 102 -18v-94q-40 22 -92 22q-72 0 -120 -52q-46 -52 -46 -144v-154h214v-88h-214v-820h-100v820h-146zM674 -4v1330h102v-1330h-102z" />
</font>
</defs>
</svg>
