<?xml version="1.0" standalone="no"?>
<!DOCTYPE svg PUBLIC "-//W3C//DTD SVG 1.1//EN" "http://www.w3.org/Graphics/SVG/1.1/DTD/svg11.dtd" >
<svg xmlns="http://www.w3.org/2000/svg">
<metadata></metadata>
<defs>
<font id="calibresemibold" horiz-adv-x="1284" >
<font-face units-per-em="2048" ascent="1332" descent="-716" />
<missing-glyph horiz-adv-x="434" />
<glyph horiz-adv-x="0" />
<glyph horiz-adv-x="0" />
<glyph unicode="&#xd;" horiz-adv-x="0" />
<glyph unicode=" "  horiz-adv-x="434" />
<glyph unicode="&#x09;" horiz-adv-x="434" />
<glyph unicode="&#xa0;" horiz-adv-x="434" />
<glyph unicode="!" horiz-adv-x="444" d="M62 144q0 66 46 114q46 46 114 46q66 0 114 -46q46 -48 46 -114t-46 -112q-48 -46 -114 -46q-68 0 -114 46t-46 112zM68 1258h308q-14 -214 -60 -852h-186q-16 212 -62 852z" />
<glyph unicode="&#x22;" horiz-adv-x="670" d="M78 750v318v190h206v-508h-206zM386 750v508h206v-508h-206z" />
<glyph unicode="#" horiz-adv-x="1262" d="M40 326l40 176h198q16 64 62 254h-208q8 44 36 176h212q20 82 78 326h202q-20 -82 -80 -326h242q20 82 80 326h200q-20 -82 -78 -326h196q-10 -44 -38 -176h-198q-16 -64 -62 -254h208q-8 -44 -36 -176h-214q-18 -82 -78 -326h-202q20 82 78 326h-242q-20 -82 -78 -326 h-198q20 82 78 326h-198zM478 502h240q16 64 62 254h-242q-14 -64 -60 -254z" />
<glyph unicode="$" horiz-adv-x="1028" d="M48 368h254q50 -150 232 -150q88 0 140 38q50 38 50 106q0 58 -34 90t-114 50q-68 16 -202 48q-298 70 -298 334q0 144 94 242q94 96 250 118v186h216v-196q134 -30 214 -114q82 -86 108 -214h-244q-46 136 -216 136q-82 0 -130 -38t-48 -100q0 -98 130 -132 q72 -16 214 -52q306 -74 306 -344q0 -144 -90 -240q-92 -96 -244 -120v-198h-216v198q-152 24 -248 116q-98 92 -124 236z" />
<glyph unicode="%" horiz-adv-x="1372" d="M56 986q0 120 84 206q86 86 206 86t206 -86q84 -86 84 -206q0 -122 -84 -206q-86 -84 -206 -84t-206 84q-84 84 -84 206zM210 0q196 314 780 1258h172q-196 -314 -780 -1258h-172zM226 986q0 -50 34 -84q34 -36 86 -36q50 0 86 36q34 34 34 84t-34 86q-36 36 -86 36 q-52 0 -86 -36t-34 -86zM736 272q0 122 84 206q86 84 206 84t206 -84q84 -84 84 -206q0 -120 -84 -206q-86 -86 -206 -86t-206 86q-84 86 -84 206zM904 272q0 -50 36 -86q34 -36 86 -36t86 36t34 86t-34 84q-34 36 -86 36t-86 -36q-36 -34 -36 -84z" />
<glyph unicode="&#x26;" horiz-adv-x="1244" d="M72 372q0 106 56 194t150 138q-82 114 -82 234q0 154 108 246q108 94 278 94t270 -92t104 -234h-250q0 52 -32 88q-32 38 -92 38t-100 -38q-42 -38 -42 -98q0 -32 18 -68t36 -58q18 -24 54 -62q96 -104 284 -314q34 102 36 210h230q-2 -206 -110 -382q80 -90 240 -268 h-306l-88 96q-150 -116 -334 -116q-192 0 -310 108t-118 284zM308 372q0 -84 52 -136q52 -54 142 -54q108 0 194 64l-282 306q-106 -54 -106 -180z" />
<glyph unicode="'" horiz-adv-x="372" d="M78 750v318v190h216v-508h-216z" />
<glyph unicode="(" horiz-adv-x="666" d="M62 580q0 284 150 486q152 202 412 266v-256q-144 -40 -232 -170q-88 -132 -88 -326t88 -326t232 -170v-256q-260 64 -412 264q-150 202 -150 488z" />
<glyph unicode=")" horiz-adv-x="666" d="M40 -82v166q146 38 234 170t88 326t-88 326q-88 130 -234 170v256q262 -64 412 -268q152 -200 152 -484q0 -286 -152 -486q-150 -202 -412 -266v90z" />
<glyph unicode="*" horiz-adv-x="708" d="M56 928l168 96l-168 96q16 28 64 114q42 -24 168 -98v196h132v-196q42 26 168 98q16 -28 66 -114q-44 -24 -170 -96q42 -24 170 -96q-18 -28 -66 -114q-42 24 -168 98v-196h-132v196q-42 -26 -168 -98q-16 28 -64 114z" />
<glyph unicode="+" horiz-adv-x="1146" d="M132 514v196h346v344h194v-344h344v-196h-344v-342h-194v342h-346z" />
<glyph unicode="," horiz-adv-x="430" d="M28 -224q38 58 150 230q-54 10 -88 50q-34 38 -34 98q0 68 46 112t114 44t114 -46q44 -46 44 -128q0 -86 -64 -186q-40 -58 -118 -174h-164z" />
<glyph unicode="-" horiz-adv-x="650" d="M78 426v222h494v-222h-494z" />
<glyph unicode="." horiz-adv-x="430" d="M56 150q0 70 46 116t114 46q66 0 112 -46t46 -116t-46 -118q-46 -46 -112 -46q-68 0 -114 46q-46 48 -46 118z" />
<glyph unicode="/" horiz-adv-x="764" d="M10 -172q128 376 508 1504h236q-128 -376 -508 -1504h-236z" />
<glyph unicode="0" horiz-adv-x="1122" d="M66 628q0 290 136 470q138 180 360 180q220 0 358 -180q136 -180 136 -470q0 -288 -136 -468q-138 -180 -358 -180q-222 0 -360 180q-136 180 -136 468zM322 628q0 -186 58 -300q60 -116 182 -116q120 0 180 116q58 114 58 300q0 188 -58 302q-60 114 -180 114 q-122 0 -182 -114q-58 -114 -58 -302z" />
<glyph unicode="1" horiz-adv-x="706" d="M34 814v160v96q96 46 384 188h166v-1258h-256v958q-74 -36 -294 -144z" />
<glyph unicode="2" horiz-adv-x="980" d="M50 870q18 180 136 294t300 114q196 0 308 -102q114 -100 114 -272q0 -74 -42 -154q-40 -78 -82 -126q-38 -44 -126 -136q-82 -88 -242 -260h506v-228h-870v170q100 104 398 420q138 152 168 206q30 52 30 96q0 68 -44 110q-42 42 -116 42q-76 0 -120 -48t-48 -126h-270z " />
<glyph unicode="3" horiz-adv-x="970" d="M20 390h258q10 -86 62 -138q54 -50 144 -50q80 0 130 46q52 46 52 120q0 78 -56 124q-54 46 -144 46h-78v204h70q84 0 136 40q54 42 54 118q0 66 -44 110t-120 44q-82 0 -130 -48t-54 -124h-254q18 172 136 284q120 112 304 112q188 0 298 -102q110 -100 110 -264 q0 -90 -42 -166q-44 -74 -110 -108q84 -36 128 -110q46 -74 46 -164q0 -168 -118 -276q-116 -108 -312 -108q-202 0 -328 112q-128 112 -138 298z" />
<glyph unicode="4" horiz-adv-x="1064" d="M44 250v46v142q108 206 434 820h256q-104 -198 -410 -794h278v260h234v-260h190v-214h-190v-250h-234v250h-558z" />
<glyph unicode="5" horiz-adv-x="996" d="M54 390h254q10 -86 62 -138q52 -50 140 -50q84 0 136 58q50 58 50 150q0 90 -50 148q-52 56 -140 56q-106 0 -180 -84h-206v728h738v-228h-524v-256q84 58 202 58q182 0 294 -118q112 -116 112 -304q0 -192 -120 -312q-120 -118 -312 -118q-196 0 -320 112 q-122 110 -136 298z" />
<glyph unicode="6" horiz-adv-x="1044" d="M68 602q0 300 130 488t350 188q174 0 282 -88q106 -88 140 -250h-254q-38 122 -166 122q-108 0 -176 -106q-66 -106 -66 -246v-18q30 60 102 96q72 38 162 38q184 0 296 -120t112 -294q0 -184 -118 -308q-120 -124 -326 -124q-256 0 -380 226q-88 154 -88 396zM330 406 q0 -94 58 -154q56 -58 150 -58q90 0 150 58q58 60 58 154q0 98 -58 158q-58 58 -150 58q-94 0 -150 -58q-58 -60 -58 -158z" />
<glyph unicode="7" horiz-adv-x="936" d="M32 1028v144v86h850v-186q-102 -268 -410 -1072h-266q102 258 404 1028h-578z" />
<glyph unicode="8" horiz-adv-x="1022" d="M60 344q0 114 62 194t156 108q-82 34 -130 108q-50 74 -50 170q0 166 120 260t294 94t292 -94q120 -94 120 -260q0 -96 -50 -170q-48 -74 -130 -108q94 -28 156 -108t62 -194q0 -168 -128 -266q-130 -98 -322 -98q-194 0 -324 98q-128 98 -128 266zM312 364 q0 -82 56 -130t144 -48q86 0 142 48t56 130t-56 130t-142 48q-88 0 -144 -48t-56 -130zM340 914q0 -72 50 -116q48 -42 122 -42q72 0 120 42q50 44 50 116q0 74 -50 118q-48 44 -120 44q-74 0 -122 -44q-50 -44 -50 -118z" />
<glyph unicode="9" horiz-adv-x="1044" d="M64 846q0 184 120 308t324 124q256 0 380 -228q88 -152 88 -394q0 -300 -130 -488t-350 -188q-174 0 -280 88q-108 88 -142 250h254q38 -124 166 -124q108 0 176 108q68 106 68 244v20q-32 -60 -104 -98q-70 -36 -160 -36q-186 0 -298 120t-112 294zM300 852 q0 -98 56 -158q58 -60 150 -60q94 0 152 60q56 60 56 158q0 94 -56 152q-58 58 -152 58q-90 0 -148 -58t-58 -152z" />
<glyph unicode=":" horiz-adv-x="430" d="M56 150q0 70 46 116t114 46q66 0 112 -46t46 -116t-46 -118q-46 -46 -112 -46q-68 0 -114 46q-46 48 -46 118zM56 734q0 68 46 114t114 46q66 0 112 -46t46 -114q0 -70 -46 -118q-46 -46 -112 -46q-68 0 -114 46q-46 48 -46 118z" />
<glyph unicode=";" horiz-adv-x="430" d="M28 -224q38 58 150 230q-54 10 -88 50q-34 38 -34 98q0 68 46 112t114 44t114 -46q44 -46 44 -128q0 -86 -64 -186q-40 -58 -118 -174h-164zM56 734q0 68 46 114t114 46q66 0 112 -46t46 -114q0 -70 -46 -118q-46 -46 -112 -46q-68 0 -114 46q-46 48 -46 118z" />
<glyph unicode="&#x3c;" horiz-adv-x="904" d="M112 484v252q168 78 672 310v-220q-122 -54 -492 -218q124 -54 492 -214v-224q-168 78 -672 314z" />
<glyph unicode="=" horiz-adv-x="1180" d="M150 358v178h882v-178h-882zM150 692v180h882v-180h-882z" />
<glyph unicode="&#x3e;" horiz-adv-x="904" d="M116 170v56v168q124 52 492 214q-122 54 -492 218v220q170 -78 674 -310v-252q-168 -80 -674 -314z" />
<glyph unicode="?" horiz-adv-x="934" d="M34 870q20 180 138 294t306 114q192 0 304 -100q110 -100 110 -270q0 -34 -6 -64q-6 -28 -20 -60l-24 -48q-10 -22 -38 -52q-24 -30 -34 -44q-12 -14 -46 -48q-30 -32 -38 -42q-74 -76 -74 -144h-252q4 74 28 122q24 50 88 124q10 12 50 56q42 44 56 62t30 54 q16 34 16 68q0 68 -42 110t-114 42q-76 0 -120 -48q-42 -50 -46 -126h-272zM318 144q0 66 46 114q48 46 116 46q66 0 114 -46q48 -48 48 -114t-48 -112t-114 -46q-68 0 -116 46q-46 46 -46 112z" />
<glyph unicode="@" horiz-adv-x="1572" d="M50 390q0 328 218 554q220 226 566 226q302 0 496 -174q192 -172 192 -434q0 -240 -122 -370q-120 -128 -294 -128q-156 0 -230 108q-28 -50 -84 -78q-54 -28 -114 -28q-128 0 -202 88q-76 88 -76 220q0 176 106 306q108 128 272 128q58 0 106 -20q48 -22 68 -54 q4 18 12 56h212q-22 -120 -84 -482q-14 -98 62 -98q94 0 150 96q58 94 58 256q0 212 -148 336q-146 122 -380 122q-272 0 -444 -176q-172 -174 -172 -454q0 -126 36 -224q38 -98 100 -160t144 -102q84 -40 166 -56q84 -16 172 -16q238 0 458 98v-150q-192 -96 -458 -96 q-156 0 -294 42q-136 42 -250 124q-112 82 -178 222q-64 138 -64 318zM622 392q0 -60 32 -98q30 -38 88 -38q86 0 138 84q10 52 38 204q-10 34 -42 56q-32 20 -76 20q-78 0 -128 -68q-50 -66 -50 -160z" />
<glyph unicode="A" d="M30 0q122 314 482 1258h260q120 -314 482 -1258h-266q-30 76 -114 304h-470l-112 -304h-262zM486 524h306q-38 104 -154 418q-38 -104 -152 -418z" />
<glyph unicode="B" horiz-adv-x="1132" d="M120 0v786v472h482q200 0 312 -88t112 -254q0 -98 -48 -170q-46 -70 -118 -96q90 -30 148 -110q56 -82 56 -184q0 -172 -110 -264q-112 -92 -310 -92h-524zM372 222h248q90 0 140 42q48 42 48 114q0 74 -48 116t-140 42h-248v-314zM372 742h214q190 0 190 148 q0 146 -190 146h-214v-294z" />
<glyph unicode="C" horiz-adv-x="1226" d="M60 628q0 288 166 468q166 182 420 182q216 0 352 -116t174 -310h-260q-72 192 -266 192q-148 0 -234 -116q-86 -114 -86 -300q0 -182 86 -298q86 -118 234 -118q194 0 266 196h260q-38 -198 -174 -312q-136 -116 -352 -116q-254 0 -420 180q-166 182 -166 468z" />
<glyph unicode="D" horiz-adv-x="1248" d="M120 0v786v472h446q284 0 452 -170t168 -460q0 -288 -168 -458t-452 -170h-446zM380 232h176q178 0 274 106t96 290q0 188 -96 294t-274 106h-176v-796z" />
<glyph unicode="E" horiz-adv-x="1056" d="M120 0v786v472h854v-230h-596v-274h542v-224h-542v-298h596v-232h-854z" />
<glyph unicode="F" horiz-adv-x="1026" d="M120 0v786v472h838v-230h-578v-320h536v-226h-536v-482h-260z" />
<glyph unicode="G" horiz-adv-x="1272" d="M60 628q0 288 170 468q172 182 430 182q220 0 358 -116t174 -310h-264q-74 192 -268 192q-154 0 -244 -116q-90 -114 -90 -300t92 -302t248 -116q118 0 194 66q74 64 96 174h-240v210h496v-112q0 -258 -152 -412q-152 -156 -394 -156q-264 0 -436 180q-170 182 -170 468z " />
<glyph unicode="H" horiz-adv-x="1336" d="M120 0v786v472h262v-500h570v500h262v-1258h-262v528h-570v-528h-262z" />
<glyph unicode="I" horiz-adv-x="502" d="M120 0v786v472h262v-1258h-262z" />
<glyph unicode="J" horiz-adv-x="1042" d="M30 400h272q16 -182 184 -182q194 0 194 238v802h262v-804q0 -232 -122 -354q-124 -120 -332 -120t-326 114t-132 306z" />
<glyph unicode="K" horiz-adv-x="1214" d="M120 0v786v472h262v-566q120 142 474 566h318q-120 -142 -480 -564q124 -174 498 -694h-318q-92 128 -372 514q-30 -36 -120 -142v-372h-262z" />
<glyph unicode="L" horiz-adv-x="1038" d="M120 0v786v472h262v-1026h586v-232h-848z" />
<glyph unicode="M" horiz-adv-x="1530" d="M120 0v786v472h312l336 -888q84 222 334 888h308v-1258h-248v822q-78 -206 -306 -822h-178q-78 206 -312 822v-822h-246z" />
<glyph unicode="N" horiz-adv-x="1294" d="M120 0v786v472h246q140 -200 556 -796v796h252v-1258h-208q-148 210 -594 838v-838h-252z" />
<glyph unicode="O" horiz-adv-x="1310" d="M60 628q0 286 166 468t428 182t428 -184q168 -182 168 -466q0 -282 -168 -466q-166 -182 -428 -182t-428 182q-166 184 -166 466zM326 628q0 -186 90 -300q90 -116 238 -116t238 116q94 114 94 300q0 188 -92 302t-240 114t-238 -114t-90 -302z" />
<glyph unicode="P" horiz-adv-x="1130" d="M120 0v786v472h512q204 0 324 -108t120 -304t-120 -304q-120 -106 -324 -106h-252v-436h-260zM380 660h236q98 0 150 50q52 52 52 136q0 88 -52 138t-150 50h-236v-374z" />
<glyph unicode="Q" horiz-adv-x="1308" d="M60 628q0 286 166 468t428 182t428 -184q168 -182 168 -466q0 -276 -170 -462q32 -42 100 -122q-42 -34 -168 -132q-26 32 -102 126q-116 -58 -256 -58q-262 0 -428 182q-166 184 -166 466zM326 628q0 -186 90 -304t238 -118q62 0 108 16q-34 42 -102 128q42 32 168 130 q24 -32 98 -124q60 102 60 272q0 188 -92 302t-240 114t-238 -114t-90 -302z" />
<glyph unicode="R" horiz-adv-x="1154" d="M120 0v786v472h518q204 0 322 -104q120 -106 120 -296q0 -148 -76 -242q-76 -96 -212 -128q112 -164 332 -488h-294q-78 118 -312 468h-138v-468h-260zM380 684h242q96 0 148 48q52 46 52 126q0 82 -52 130q-52 46 -148 46h-242v-350z" />
<glyph unicode="S" horiz-adv-x="1086" d="M34 358h272q50 -162 250 -162q96 0 152 42q58 42 58 116q0 58 -36 90q-36 34 -118 52q-74 16 -224 50q-320 72 -320 344q0 170 126 280q128 108 326 108q210 0 336 -100q124 -98 158 -264h-260q-52 148 -232 148q-90 0 -144 -40q-54 -38 -54 -106q0 -104 140 -138 q78 -18 230 -54q330 -74 330 -354q0 -178 -132 -284q-130 -106 -334 -106q-212 0 -352 100q-138 100 -172 278z" />
<glyph unicode="T" horiz-adv-x="1178" d="M54 1028v58v172h1072v-230h-406v-1028h-264v1028h-402z" />
<glyph unicode="U" horiz-adv-x="1250" d="M102 506v488v264h262v-726q0 -316 260 -316t260 316v726h262v-752q0 -254 -140 -390t-382 -136q-238 0 -380 136t-142 390z" />
<glyph unicode="V" horiz-adv-x="1258" d="M30 1258h278q80 -228 324 -910q82 228 326 910h270q-118 -314 -472 -1258h-254q-118 314 -472 1258z" />
<glyph unicode="W" horiz-adv-x="1626" d="M24 1258h264q52 -212 206 -846q54 212 220 846h206q54 -212 216 -846q52 212 208 846h258q-82 -314 -328 -1258h-240q-56 208 -220 830q-56 -208 -222 -830h-240q-82 314 -328 1258z" />
<glyph unicode="X" horiz-adv-x="1200" d="M14 0q110 160 436 642l-416 616h298q68 -102 270 -408q70 102 276 408h288q-104 -154 -416 -612q108 -162 436 -646h-296q-72 110 -294 436q-74 -108 -292 -436h-290z" />
<glyph unicode="Y" horiz-adv-x="1214" d="M22 1258h286q76 -134 304 -534q76 134 304 534h276q-114 -196 -456 -780v-478h-260v478q-114 194 -454 780z" />
<glyph unicode="Z" horiz-adv-x="1134" d="M82 0v190q158 210 630 838h-620v230h952v-188q-156 -210 -626 -838h634v-232h-970z" />
<glyph unicode="[" horiz-adv-x="660" d="M120 -172v940v564h498v-220h-260v-1064h260v-220h-498z" />
<glyph unicode="\" horiz-adv-x="764" d="M10 1332h236q126 -376 508 -1504h-236q-126 376 -508 1504z" />
<glyph unicode="]" horiz-adv-x="660" d="M40 48h262v1064h-262v56v164h498v-1504h-498v220z" />
<glyph unicode="^" horiz-adv-x="838" d="M20 806q72 114 284 452h230q72 -114 284 -452h-238q-40 66 -160 258q-40 -64 -162 -258h-238z" />
<glyph unicode="_" horiz-adv-x="780" d="M40 -86h176h524v-206h-700v52v154z" />
<glyph unicode="`" horiz-adv-x="1024" d="M306 1332h252q40 -74 160 -292h-230q-46 74 -182 292z" />
<glyph unicode="a" horiz-adv-x="958" d="M56 280q0 130 100 212q102 82 254 82q56 0 118 -16q62 -18 90 -38v68q0 62 -38 102t-112 40q-102 0 -134 -86h-242q20 126 126 208q106 84 260 84q182 0 282 -94q102 -92 102 -258v-584h-244v50q-24 -26 -88 -46t-134 -20q-146 0 -244 80q-96 80 -96 216zM290 282 q0 -54 48 -84q48 -28 114 -28q58 0 104 22q46 20 62 58v66q-16 36 -62 58t-104 22q-64 0 -114 -30q-48 -28 -48 -84z" />
<glyph unicode="b" horiz-adv-x="1062" d="M108 0v832v500h256v-492q34 38 96 68q64 28 134 28q192 0 304 -138q112 -136 112 -342q0 -204 -112 -340t-304 -136q-70 0 -134 28q-62 28 -96 68v-76h-256zM364 308q24 -48 70 -78t102 -30q100 0 160 72t60 184q0 114 -60 186t-160 72q-54 0 -102 -28q-46 -30 -70 -78 v-300z" />
<glyph unicode="c" horiz-adv-x="940" d="M54 456q0 214 122 346q124 134 318 134q168 0 274 -90t126 -240h-248q-12 54 -52 84q-38 28 -100 28q-86 0 -138 -70q-50 -72 -50 -192q0 -116 50 -188q52 -72 138 -72q62 0 100 30q40 30 52 84h248q-20 -150 -124 -240q-106 -90 -276 -90q-194 0 -318 132 q-122 134 -122 344z" />
<glyph unicode="d" horiz-adv-x="1062" d="M54 456q0 206 110 342q112 138 304 138q70 0 134 -28q64 -30 96 -68v492h256v-1332h-256v76q-32 -40 -96 -68t-134 -28q-192 0 -304 136q-110 136 -110 340zM308 456q0 -112 58 -184q60 -72 160 -72q58 0 104 30t68 78v300q-22 48 -70 78q-46 28 -102 28q-100 0 -160 -72 q-58 -72 -58 -186z" />
<glyph unicode="e" horiz-adv-x="960" d="M54 456q0 208 124 344t316 136q196 0 306 -124t110 -330v-78h-610q6 -102 58 -162q54 -58 140 -58q138 0 170 116h236q-26 -150 -130 -236q-106 -84 -276 -84q-198 0 -322 132q-122 132 -122 344zM306 558h354q-2 74 -46 122q-42 50 -118 50q-156 0 -190 -172z" />
<glyph unicode="f" horiz-adv-x="668" d="M32 710v130v76h150v108q0 154 88 240t236 86q86 0 142 -24v-216q-36 24 -90 24q-126 0 -126 -126v-92h190v-206h-190v-710h-250v710h-150z" />
<glyph unicode="g" horiz-adv-x="1056" d="M54 480q0 190 112 322q112 134 302 134q146 0 226 -92v72h252v-816q0 -226 -122 -342q-124 -116 -326 -116q-178 0 -292 86t-134 240h246q30 -130 180 -130q196 0 196 224v52q-78 -94 -226 -94q-190 0 -302 134q-112 132 -112 326zM308 480q0 -110 56 -178 q58 -68 158 -68q56 0 102 28q46 26 70 68v298q-58 94 -172 94q-100 0 -158 -66q-56 -68 -56 -176z" />
<glyph unicode="h" horiz-adv-x="1034" d="M110 0v832v500h254v-500q90 104 246 104q154 0 238 -92q86 -92 86 -246v-598h-254v544q0 74 -38 118t-112 44q-58 0 -106 -34q-46 -34 -60 -92v-580h-254z" />
<glyph unicode="i" horiz-adv-x="476" d="M86 1180q0 62 46 104q44 42 106 42t106 -42t44 -104q0 -64 -44 -104q-44 -42 -106 -42q-64 0 -108 42q-44 40 -44 104zM110 0v572v344h254v-916h-254z" />
<glyph unicode="j" horiz-adv-x="472" d="M-54 -146q44 -6 56 -6q108 0 108 118v950h254v-952q0 -154 -82 -238t-236 -84q-68 0 -100 10v76v126zM86 1180q0 62 46 104q44 42 106 42t106 -42t44 -104q0 -64 -44 -104q-44 -42 -106 -42q-64 0 -108 42q-44 40 -44 104z" />
<glyph unicode="k" horiz-adv-x="1022" d="M110 0v832v500h254v-756q78 84 314 340h316q-94 -98 -372 -390q96 -132 386 -526h-302q-66 92 -268 368q-18 -20 -74 -80v-288h-254z" />
<glyph unicode="l" horiz-adv-x="476" d="M110 0v832v500h254v-1332h-254z" />
<glyph unicode="m" horiz-adv-x="1520" d="M110 0v572v344h254v-76q76 96 232 96q158 0 246 -116q106 116 276 116q142 0 222 -92q80 -90 80 -246v-598h-254v544q0 76 -34 120t-98 44q-50 0 -90 -30q-38 -30 -52 -88v-590h-256v544q0 164 -128 164q-52 0 -92 -32q-40 -30 -52 -86v-590h-254z" />
<glyph unicode="n" horiz-adv-x="1034" d="M110 0v572v344h254v-84q90 104 246 104q154 0 238 -92q86 -92 86 -246v-598h-254v544q0 74 -38 118t-112 44q-58 0 -106 -34q-46 -34 -60 -92v-580h-254z" />
<glyph unicode="o" horiz-adv-x="1002" d="M54 456q0 214 124 346q126 134 324 134t324 -134q124 -132 124 -346q0 -210 -124 -344q-126 -132 -324 -132t-324 132q-124 134 -124 344zM306 456q0 -116 52 -188q52 -74 144 -74t144 74q52 72 52 188q0 120 -52 192t-144 72t-144 -72t-52 -192z" />
<glyph unicode="p" horiz-adv-x="1062" d="M110 -338v784v470h254v-76q34 38 96 68q64 28 134 28q192 0 306 -138q112 -138 112 -342q0 -202 -112 -340q-114 -136 -306 -136q-70 0 -134 28q-62 28 -96 68v-414h-254zM364 308q24 -48 70 -78q48 -30 102 -30q100 0 160 72t60 184q0 114 -60 186t-160 72 q-54 0 -100 -28q-46 -30 -72 -78v-300z" />
<glyph unicode="q" horiz-adv-x="1062" d="M52 456q0 204 112 342t304 138q70 0 134 -28q64 -30 96 -68v76h254v-1254h-254v414q-32 -40 -96 -68t-134 -28q-192 0 -304 136q-112 138 -112 340zM308 456q0 -112 58 -184q60 -72 160 -72q56 0 102 30q48 30 70 78v300q-24 48 -70 78q-46 28 -102 28q-100 0 -160 -72 q-58 -72 -58 -186z" />
<glyph unicode="r" horiz-adv-x="718" d="M110 0v572v344h254v-90q66 110 206 110q66 0 96 -16v-254q-52 30 -128 30q-64 0 -112 -34t-62 -94v-568h-254z" />
<glyph unicode="s" horiz-adv-x="894" d="M52 272h252q30 -100 152 -100q130 0 130 90q0 30 -22 48t-70 30q-62 14 -184 40q-238 56 -238 258q0 132 104 214q104 84 260 84q170 0 268 -74q96 -76 122 -208h-242q-28 90 -144 90q-48 0 -84 -24q-36 -22 -36 -62q0 -52 82 -72q62 -14 188 -44q244 -58 244 -266 q0 -136 -106 -216t-270 -80q-170 0 -278 76q-108 78 -128 216z" />
<glyph unicode="t" horiz-adv-x="706" d="M26 710v78v128h140v248h252v-248h200v-206h-200v-400q0 -106 104 -106q64 0 110 32v-226q-52 -28 -164 -28q-142 0 -222 74t-80 220v434h-140z" />
<glyph unicode="u" horiz-adv-x="1030" d="M100 318v388v210h254v-548q0 -76 38 -118q36 -44 110 -44q60 0 104 34q46 34 60 94v582h256v-916h-254v84q-94 -104 -246 -104t-238 92q-84 92 -84 246z" />
<glyph unicode="v" horiz-adv-x="994" d="M26 916h266q54 -152 212 -608q52 152 206 608h256q-86 -230 -348 -916h-246q-86 228 -346 916z" />
<glyph unicode="w" horiz-adv-x="1376" d="M26 916h254q42 -146 164 -584q38 146 150 584h194l152 -584q40 146 164 584h246q-70 -230 -278 -916h-234q-38 140 -150 562q-38 -142 -150 -562h-232q-70 228 -280 916z" />
<glyph unicode="x" horiz-adv-x="976" d="M18 0q82 116 330 466q-78 114 -312 450h282q44 -66 176 -260q44 64 180 260h266q-78 -112 -314 -442q84 -120 334 -474h-280q-50 72 -196 286q-50 -70 -200 -286h-266z" />
<glyph unicode="y" horiz-adv-x="998" d="M26 916h268q54 -152 212 -608l208 608h256q-118 -314 -476 -1254h-250q32 84 132 334q-86 230 -350 920z" />
<glyph unicode="z" horiz-adv-x="928" d="M78 0v164q110 136 440 546h-424v206h742v-164q-108 -138 -432 -548h440v-204h-766z" />
<glyph unicode="{" horiz-adv-x="722" d="M40 468v166v56h98q58 0 58 60v314q0 120 74 194t190 74h222v-220h-186q-60 0 -60 -60v-302q0 -112 -96 -170q96 -60 96 -170v-304q0 -58 60 -58h186v-220h-222q-116 0 -190 74t-74 192v316q0 58 -58 58h-98z" />
<glyph unicode="|" horiz-adv-x="466" d="M120 -172v940v564h226v-1504h-226z" />
<glyph unicode="}" horiz-adv-x="722" d="M40 48h188q58 0 58 58v304q0 110 96 170q-96 58 -96 170v302q0 60 -58 60h-188v56v164h222q116 0 190 -74t74 -194v-314q0 -60 60 -60h96v-222h-96q-60 0 -60 -58v-316q0 -118 -74 -192t-190 -74h-222v220z" />
<glyph unicode="~" horiz-adv-x="876" d="M74 408q0 148 58 228q56 82 158 82q68 0 148 -60q78 -60 110 -60q74 0 74 112h180q0 -146 -56 -228q-58 -82 -160 -82q-56 0 -104 30q-48 28 -86 60q-38 30 -68 30q-74 0 -74 -112h-180z" />
<glyph unicode="&#xa1;" horiz-adv-x="458" d="M62 918q0 66 46 112t114 46q66 0 114 -46q46 -46 46 -112q0 -68 -46 -114q-48 -46 -114 -46q-68 0 -114 46t-46 114zM68 -196q14 212 62 852h186q14 -214 60 -852h-308z" />
<glyph unicode="&#xa2;" horiz-adv-x="940" d="M54 478q0 182 92 308t246 160v184h216v-186q124 -28 196 -116q74 -86 88 -214h-246q-10 58 -50 92t-102 34q-86 0 -138 -72q-50 -72 -50 -190t50 -190q52 -70 138 -70q62 0 102 32t50 90h246q-14 -128 -88 -214q-72 -88 -196 -114v-190h-216v188q-154 34 -246 158 q-92 126 -92 310z" />
<glyph unicode="&#xa3;" horiz-adv-x="1018" d="M56 0v210h106q40 72 40 188v122h-146v198h146v146q0 178 108 296t286 118q162 0 262 -94q98 -92 112 -246h-234q-14 124 -138 124q-74 0 -112 -52q-40 -54 -40 -142v-150h262v-198h-262v-122q0 -130 -42 -188h564v-210h-912z" />
<glyph unicode="&#xa5;" horiz-adv-x="1148" d="M38 1258h282q64 -124 260 -496q64 124 260 496h270q-78 -140 -314 -562h218v-172h-312v-114h312v-172h-312v-238h-258v238h-310v172h310v114h-310v172h214q-78 140 -310 562z" />
<glyph unicode="&#xa7;" horiz-adv-x="964" d="M40 622q0 160 142 238q-42 56 -42 136q0 128 96 206q98 76 254 76q172 0 270 -80t114 -222h-230q-20 114 -146 114q-50 0 -84 -22q-36 -24 -36 -66q0 -36 24 -58q22 -22 74 -56q74 -44 226 -136q106 -64 164 -134t58 -168q0 -160 -142 -238q44 -58 44 -134 q0 -130 -98 -206t-254 -76q-170 0 -270 80q-98 78 -114 220h232q18 -112 144 -112q50 0 84 22t34 66q0 34 -22 58q-24 24 -74 54q-76 46 -226 138q-106 64 -164 132q-58 70 -58 168zM270 634q0 -60 104 -128q64 -40 250 -160q70 18 70 92q0 60 -106 130q-82 52 -248 160 q-70 -18 -70 -94z" />
<glyph unicode="&#xa8;" horiz-adv-x="1024" d="M206 1168q0 56 40 96t98 40q56 0 96 -40t40 -96t-40 -96t-96 -40q-58 0 -98 40t-40 96zM542 1168q0 56 40 96t96 40t96 -40q42 -40 42 -96t-42 -96q-40 -40 -96 -40t-96 40t-40 96z" />
<glyph unicode="&#xa9;" horiz-adv-x="1442" d="M72 628q0 280 190 464q188 186 458 186q272 0 460 -186q190 -184 190 -464q0 -278 -190 -464q-188 -184 -460 -184q-270 0 -458 184q-190 186 -190 464zM168 628q0 -236 162 -396q162 -158 390 -158q230 0 392 158q162 160 162 396q0 238 -162 398q-162 158 -392 158 q-228 0 -390 -158q-162 -160 -162 -398zM344 632q0 182 108 294q108 114 276 114q144 0 232 -76q88 -78 112 -204h-216q-28 88 -128 88q-80 0 -126 -60q-44 -60 -44 -156q0 -94 44 -154q46 -62 126 -62q100 0 128 90h216q-24 -128 -112 -204t-232 -76q-168 0 -278 112 q-106 114 -106 294z" />
<glyph unicode="&#xaa;" horiz-adv-x="630" d="M18 836q0 88 68 142q68 56 170 56q82 0 140 -34v40q0 34 -22 56t-62 22q-66 0 -78 -48h-186q12 92 86 150q72 60 186 60q126 0 198 -66t72 -182v-382h-194v30q-48 -44 -150 -44q-96 0 -162 54t-66 146zM212 840q0 -62 90 -62q70 0 94 44v36q-26 46 -94 46q-38 0 -64 -18 q-26 -16 -26 -46z" />
<glyph unicode="&#xab;" horiz-adv-x="860" d="M52 454q46 84 188 330h216q-46 -82 -188 -330q48 -82 188 -330h-216q-48 84 -188 330zM404 454q46 84 188 330h216q-46 -82 -188 -330q48 -82 188 -330h-216q-48 84 -188 330z" />
<glyph unicode="&#xad;" horiz-adv-x="650" d="M78 426v222h494v-222h-494z" />
<glyph unicode="&#xae;" horiz-adv-x="834" d="M46 904q0 158 108 266t262 108t262 -108t108 -266q0 -160 -108 -268t-262 -108t-262 108t-108 268zM112 904q0 -136 88 -224t216 -88q126 0 214 88t88 224q0 134 -88 222t-214 88q-128 0 -216 -88t-88 -222zM262 708v394h184q68 0 106 -38q40 -36 40 -100q0 -92 -76 -118 l90 -138h-122q-20 32 -76 126h-36v-126h-110zM372 922h62q52 0 52 42q0 46 -52 46h-62v-88z" />
<glyph unicode="&#xaf;" horiz-adv-x="1024" d="M268 1056v188h486v-188h-486z" />
<glyph unicode="&#xb0;" horiz-adv-x="732" d="M90 998q0 116 82 198q80 82 194 82q116 0 196 -82q82 -82 82 -198t-82 -198q-80 -82 -196 -82q-114 0 -194 82q-82 82 -82 198zM244 998q0 -52 36 -88q36 -38 86 -38t86 38q36 36 36 88q0 50 -36 88t-86 38t-86 -36q-36 -38 -36 -90z" />
<glyph unicode="&#xb1;" horiz-adv-x="1166" d="M154 126v188h858v-188h-858zM154 672v184h338v266h184v-266h336v-184h-336v-266h-184v266h-338z" />
<glyph unicode="&#xb2;" horiz-adv-x="610" d="M44 1032q10 102 80 170q70 66 182 66q114 0 182 -60q70 -62 70 -160q0 -42 -22 -84q-20 -40 -42 -66t-68 -68q-40 -38 -118 -114h250v-156h-508v122q60 60 240 238q80 76 80 122q0 28 -16 44q-18 16 -46 16q-30 0 -48 -20q-20 -22 -20 -50h-196z" />
<glyph unicode="&#xb3;" horiz-adv-x="604" d="M34 784h192q2 -36 22 -60q20 -22 58 -22q34 0 54 20q20 22 20 54q0 68 -80 68h-56v134h46q84 0 84 68q0 32 -18 50q-20 18 -52 18q-34 0 -54 -22t-24 -56h-182q12 98 78 166q66 66 174 66q118 0 184 -60t66 -158q0 -42 -20 -82q-22 -40 -52 -58q82 -42 82 -140 q0 -100 -70 -162q-68 -62 -186 -62t-188 66q-72 64 -78 172z" />
<glyph unicode="&#xb4;" horiz-adv-x="1024" d="M306 1040q40 74 160 292h252q-46 -74 -184 -292h-228z" />
<glyph unicode="&#xb6;" horiz-adv-x="1102" d="M26 894q0 180 136 272q134 92 316 92h186v-1442h-186v714q-182 0 -316 94q-136 92 -136 270zM794 -184v1442h186v-1442h-186z" />
<glyph unicode="&#xb7;" horiz-adv-x="438" d="M60 538q0 70 46 116t114 46q66 0 112 -46t46 -116t-46 -116q-46 -48 -112 -48q-68 0 -114 48q-46 46 -46 116z" />
<glyph unicode="&#xb8;" horiz-adv-x="1024" d="M318 -380q36 70 142 284h234q-38 -72 -152 -284h-224z" />
<glyph unicode="&#xb9;" horiz-adv-x="486" d="M36 956v72v116q60 28 236 114h130v-698h-186v484q-46 -22 -180 -88z" />
<glyph unicode="&#xba;" horiz-adv-x="664" d="M16 958q0 142 88 232t228 90t226 -90q88 -90 88 -232t-88 -234q-86 -90 -226 -90t-228 90q-88 92 -88 234zM226 958q0 -68 28 -108q28 -42 78 -42q48 0 78 42q28 40 28 108q0 66 -28 108q-30 42 -78 42q-50 0 -78 -42t-28 -108z" />
<glyph unicode="&#xbb;" horiz-adv-x="860" d="M52 124q46 84 188 330q-48 84 -188 330h216q48 -82 188 -330q-46 -82 -188 -330h-216zM404 124q46 84 188 330q-48 84 -188 330h216q48 -82 188 -330q-46 -82 -188 -330h-216z" />
<glyph unicode="&#xbc;" horiz-adv-x="1438" d="M64 956v48v140q58 28 236 114h128v-698h-184v484q-46 -22 -180 -88zM160 0q220 314 882 1258h184q-220 -314 -882 -1258h-184zM784 124v142q54 108 218 432h182q-50 -104 -196 -418h108v114h164v-114h96v-156h-96v-124h-164v124h-312z" />
<glyph unicode="&#xbd;" horiz-adv-x="1466" d="M64 956v48v140q58 28 236 114h128v-698h-184v484q-46 -22 -180 -88zM160 0q220 314 882 1258h184q-220 -314 -882 -1258h-184zM850 476q10 102 80 168q72 64 180 64q116 0 184 -58q68 -60 68 -158q0 -44 -22 -86q-22 -44 -42 -66q-18 -20 -66 -70q-38 -36 -118 -110h250 v-160h-510v124q60 60 244 236q78 82 78 124q0 28 -16 44q-18 16 -46 16t-48 -20t-22 -48h-194z" />
<glyph unicode="&#xbe;" horiz-adv-x="1508" d="M78 784h190q2 -36 24 -60q22 -22 56 -22t56 20q22 22 22 54q0 68 -84 68h-56v134h48q84 0 84 68q0 32 -18 50q-20 18 -52 18t-54 -22t-26 -56h-182q12 100 78 166q68 66 178 66q114 0 182 -60t68 -158q0 -42 -22 -82t-54 -58q82 -42 82 -140q0 -100 -68 -162t-186 -62 t-190 66q-70 64 -76 172zM230 0q220 314 882 1258h182q-220 -314 -880 -1258h-184zM854 124v142l216 432h184q-50 -104 -200 -418h112v114h162v-114h98v-156h-98v-124h-162v124h-312z" />
<glyph unicode="&#xbf;" horiz-adv-x="934" d="M40 154q0 32 8 62q6 30 20 58q14 32 24 52t34 50q28 32 38 44q12 14 42 46q34 36 42 44q74 78 74 146h252q-4 -74 -28 -124q-24 -48 -88 -122q-10 -12 -50 -56q-42 -44 -56 -64q-14 -18 -30 -52q-16 -36 -16 -70q0 -68 42 -110t114 -42q76 0 120 50q42 48 46 124h272 q-20 -180 -138 -294t-306 -114q-192 0 -304 102q-112 100 -112 270zM292 918q0 66 48 112t114 46q68 0 116 -46q46 -46 46 -112q0 -68 -46 -114q-48 -46 -116 -46q-66 0 -114 46t-48 114z" />
<glyph unicode="&#xc0;" d="M30 0q122 314 482 1258h260q120 -314 482 -1258h-266q-30 76 -114 304h-470l-112 -304h-262zM336 1620h276q42 -62 164 -250h-250q-48 62 -190 250zM486 524h306q-38 104 -154 418q-38 -104 -152 -418z" />
<glyph unicode="&#xc1;" d="M30 0q122 314 482 1258h260q120 -314 482 -1258h-266q-30 76 -114 304h-470l-112 -304h-262zM486 524h306q-38 104 -154 418q-38 -104 -152 -418zM504 1370q40 62 164 250h276q-48 -62 -190 -250h-250z" />
<glyph unicode="&#xc2;" d="M30 0q122 314 482 1258h260q120 -314 482 -1258h-266q-30 76 -114 304h-470l-112 -304h-262zM330 1370q50 66 204 260h214q50 -64 204 -260h-214q-24 28 -96 110q-26 -26 -98 -110h-214zM486 524h306q-38 104 -154 418q-38 -104 -152 -418z" />
<glyph unicode="&#xc3;" d="M30 0q122 314 482 1258h260q120 -314 482 -1258h-266q-30 76 -114 304h-470l-112 -304h-262zM336 1364q0 128 42 206q44 78 132 78q54 0 126 -42q72 -44 106 -44q56 0 58 80h146q0 -128 -42 -206q-44 -78 -132 -78q-54 0 -126 42q-72 44 -106 44q-56 0 -58 -80h-146z M486 524h306q-38 104 -154 418q-38 -104 -152 -418z" />
<glyph unicode="&#xc4;" d="M30 0q122 314 482 1258h260q120 -314 482 -1258h-266q-30 76 -114 304h-470l-112 -304h-262zM336 1496q0 58 38 98q40 40 100 40q56 0 96 -40t40 -98q0 -56 -40 -96t-96 -40q-58 0 -98 40t-40 96zM486 524h306q-38 104 -154 418q-38 -104 -152 -418zM674 1496q0 58 40 98 t98 40q56 0 98 -40q40 -40 40 -98q0 -56 -40 -96q-42 -40 -98 -40q-58 0 -98 40t-40 96z" />
<glyph unicode="&#xc5;" d="M30 0q122 314 482 1258h260q120 -314 482 -1258h-266q-30 76 -114 304h-470l-112 -304h-262zM438 1522q0 84 58 140q60 58 146 58t144 -58q58 -56 58 -140t-58 -142q-58 -56 -144 -56t-146 56q-58 58 -58 142zM486 524h306q-38 104 -154 418q-38 -104 -152 -418z M562 1522q0 -36 22 -58t58 -22q34 0 58 24q22 22 22 56t-22 58q-24 24 -58 24t-58 -24q-22 -24 -22 -58z" />
<glyph unicode="&#xc6;" horiz-adv-x="1800" d="M30 0q180 314 718 1258h970v-230h-556v-274h500v-224h-500v-298h556v-232h-814v304h-426q-44 -76 -172 -304h-276zM604 524h300v524q-76 -130 -300 -524z" />
<glyph unicode="&#xc7;" horiz-adv-x="1226" d="M60 628q0 288 166 468q166 182 420 182q216 0 352 -116t174 -310h-260q-72 192 -266 192q-148 0 -234 -116q-86 -114 -86 -300q0 -182 86 -298q86 -118 234 -118q194 0 266 196h260q-38 -198 -174 -312q-136 -116 -352 -116q-254 0 -420 180q-166 182 -166 468zM400 -380 q36 70 142 284h234q-38 -72 -152 -284h-224z" />
<glyph unicode="&#xc8;" horiz-adv-x="1056" d="M120 0v786v472h854v-230h-596v-274h542v-224h-542v-298h596v-232h-854zM252 1620h276q42 -62 164 -250h-250q-48 62 -190 250z" />
<glyph unicode="&#xc9;" horiz-adv-x="1056" d="M120 0v786v472h854v-230h-596v-274h542v-224h-542v-298h596v-232h-854zM418 1370q40 62 164 250h276q-48 -62 -190 -250h-250z" />
<glyph unicode="&#xca;" horiz-adv-x="1056" d="M120 0v786v472h854v-230h-596v-274h542v-224h-542v-298h596v-232h-854zM244 1370q50 66 204 260h214q50 -64 204 -260h-214q-24 28 -96 110q-26 -26 -98 -110h-214z" />
<glyph unicode="&#xcb;" horiz-adv-x="1056" d="M120 0v786v472h854v-230h-596v-274h542v-224h-542v-298h596v-232h-854zM250 1496q0 58 38 98q40 40 100 40q56 0 96 -40t40 -98q0 -56 -40 -96t-96 -40q-58 0 -98 40t-40 96zM588 1496q0 58 40 98t96 40q58 0 100 -40q40 -40 40 -98q0 -56 -40 -96q-42 -40 -100 -40 q-56 0 -96 40t-40 96z" />
<glyph unicode="&#xcc;" horiz-adv-x="502" d="M-54 1620h278q40 -62 164 -250h-250q-48 62 -192 250zM120 0v786v472h262v-1258h-262z" />
<glyph unicode="&#xcd;" horiz-adv-x="502" d="M114 1370q42 62 164 250h278q-48 -62 -192 -250h-250zM120 0v786v472h262v-1258h-262z" />
<glyph unicode="&#xce;" horiz-adv-x="502" d="M-60 1370q52 66 206 260h212q52 -64 206 -260h-216q-24 28 -96 110q-24 -26 -96 -110h-216zM120 0v786v472h262v-1258h-262z" />
<glyph unicode="&#xcf;" horiz-adv-x="502" d="M-56 1496q0 58 40 98q38 40 98 40q58 0 98 -40t40 -98q0 -56 -40 -96t-98 -40t-98 40t-40 96zM120 0v786v472h262v-1258h-262zM282 1496q0 58 40 98t98 40t98 -40q42 -40 42 -98q0 -56 -42 -96q-40 -40 -98 -40t-98 40t-40 96z" />
<glyph unicode="&#xd0;" horiz-adv-x="1282" d="M52 540v212h104v506h444q284 0 452 -170t168 -460q0 -288 -168 -458t-452 -170h-444v540h-104zM416 232h174q178 0 274 106t96 290q0 188 -96 294t-274 106h-174v-276h210v-212h-210v-308z" />
<glyph unicode="&#xd1;" horiz-adv-x="1294" d="M120 0v786v472h246q140 -200 556 -796v796h252v-1258h-208q-148 210 -594 838v-838h-252zM342 1364q0 128 44 206q42 78 130 78q54 0 126 -42q72 -44 106 -44q54 0 58 80h146q0 -128 -42 -206q-44 -78 -132 -78q-54 0 -126 42q-72 44 -106 44q-54 0 -58 -80h-146z" />
<glyph unicode="&#xd2;" horiz-adv-x="1310" d="M60 628q0 286 166 468t428 182t428 -184q168 -182 168 -466q0 -282 -168 -466q-166 -182 -428 -182t-428 182q-166 184 -166 466zM326 628q0 -186 90 -300q90 -116 238 -116t238 116q94 114 94 300q0 188 -92 302t-240 114t-238 -114t-90 -302zM350 1620h276 q42 -62 164 -250h-250q-46 62 -190 250z" />
<glyph unicode="&#xd3;" horiz-adv-x="1310" d="M60 628q0 286 166 468t428 182t428 -184q168 -182 168 -466q0 -282 -168 -466q-166 -182 -428 -182t-428 182q-166 184 -166 466zM326 628q0 -186 90 -300q90 -116 238 -116t238 116q94 114 94 300q0 188 -92 302t-240 114t-238 -114t-90 -302zM516 1370q42 62 164 250 h276q-48 -62 -190 -250h-250z" />
<glyph unicode="&#xd4;" horiz-adv-x="1310" d="M60 628q0 286 166 468t428 182t428 -184q168 -182 168 -466q0 -282 -168 -466q-166 -182 -428 -182t-428 182q-166 184 -166 466zM326 628q0 -186 90 -300q90 -116 238 -116t238 116q94 114 94 300q0 188 -92 302t-240 114t-238 -114t-90 -302zM342 1370q52 66 204 260 h214q52 -64 204 -260h-214q-24 28 -96 110q-24 -26 -96 -110h-216z" />
<glyph unicode="&#xd5;" horiz-adv-x="1310" d="M60 628q0 286 166 468t428 182t428 -184q168 -182 168 -466q0 -282 -168 -466q-166 -182 -428 -182t-428 182q-166 184 -166 466zM326 628q0 -186 90 -300q90 -116 238 -116t238 116q94 114 94 300q0 188 -92 302t-240 114t-238 -114t-90 -302zM348 1364q0 128 44 206 q42 78 130 78q54 0 126 -42q72 -44 106 -44q58 0 60 80h144q0 -128 -42 -206q-44 -78 -132 -78q-52 0 -126 42q-72 44 -106 44q-56 0 -58 -80h-146z" />
<glyph unicode="&#xd6;" horiz-adv-x="1310" d="M60 628q0 286 166 468t428 182t428 -184q168 -182 168 -466q0 -282 -168 -466q-166 -182 -428 -182t-428 182q-166 184 -166 466zM326 628q0 -186 90 -300q90 -116 238 -116t238 116q94 114 94 300q0 188 -92 302t-240 114t-238 -114t-90 -302zM348 1496q0 58 40 98 q38 40 98 40q56 0 96 -40t40 -98q0 -56 -40 -96t-96 -40q-58 0 -98 40t-40 96zM686 1496q0 58 40 98t98 40q56 0 98 -40q40 -40 40 -98q0 -56 -40 -96q-42 -40 -98 -40q-58 0 -98 40t-40 96z" />
<glyph unicode="&#xd7;" horiz-adv-x="1014" d="M122 362q64 62 250 248q-62 62 -250 246l136 136l248 -248l248 248l136 -136q-62 -62 -248 -246l248 -248l-136 -136l-248 248l-248 -248z" />
<glyph unicode="&#xd8;" horiz-adv-x="1330" d="M70 628q0 286 166 468t428 182q198 0 350 -112q32 38 98 118q30 -22 118 -90q-26 -34 -110 -134q140 -178 140 -432q0 -282 -168 -466q-166 -182 -428 -182q-200 0 -346 108l-96 -114q-30 22 -120 90q28 32 106 128q-138 178 -138 436zM334 628q0 -136 42 -230 q162 194 484 580q-82 66 -196 66q-148 0 -240 -116q-90 -114 -90 -300zM472 274q78 -62 192 -62q150 0 240 116q92 116 92 300q0 134 -44 228z" />
<glyph unicode="&#xd9;" horiz-adv-x="1250" d="M102 506v488v264h262v-726q0 -316 260 -316t260 316v726h262v-752q0 -254 -140 -390t-382 -136q-238 0 -380 136t-142 390zM320 1620h276q40 -62 164 -250h-250q-48 62 -190 250z" />
<glyph unicode="&#xda;" horiz-adv-x="1250" d="M102 506v488v264h262v-726q0 -316 260 -316t260 316v726h262v-752q0 -254 -140 -390t-382 -136q-238 0 -380 136t-142 390zM488 1370q40 62 164 250h276q-48 -62 -190 -250h-250z" />
<glyph unicode="&#xdb;" horiz-adv-x="1250" d="M102 506v488v264h262v-726q0 -316 260 -316t260 316v726h262v-752q0 -254 -140 -390t-382 -136q-238 0 -380 136t-142 390zM314 1370q50 66 204 260h214q50 -64 204 -260h-216q-24 28 -96 110q-24 -26 -96 -110h-214z" />
<glyph unicode="&#xdc;" horiz-adv-x="1250" d="M102 506v488v264h262v-726q0 -316 260 -316t260 316v726h262v-752q0 -254 -140 -390t-382 -136q-238 0 -380 136t-142 390zM320 1496q0 58 38 98q40 40 98 40t98 -40t40 -98q0 -56 -40 -96t-98 -40q-56 0 -96 40t-40 96zM658 1496q0 58 40 98t96 40q58 0 98 -40 q42 -40 42 -98q0 -56 -42 -96q-40 -40 -98 -40q-56 0 -96 40t-40 96z" />
<glyph unicode="&#xdd;" horiz-adv-x="1214" d="M22 1258h286q76 -134 304 -534q76 134 304 534h276q-114 -196 -456 -780v-478h-260v478q-114 194 -454 780zM468 1370q42 62 164 250h278q-48 -62 -192 -250h-250z" />
<glyph unicode="&#xde;" horiz-adv-x="1130" d="M120 0v786v472h260v-204h252q206 0 324 -106q120 -106 120 -304t-120 -304t-324 -106h-252v-234h-260zM380 456h236q98 0 150 52t52 136q0 88 -52 138t-150 50h-236v-376z" />
<glyph unicode="&#xdf;" horiz-adv-x="1084" d="M110 0v326v590q0 198 116 316t308 118q194 0 298 -96q106 -96 106 -250q0 -96 -40 -168q-40 -70 -102 -96q104 -36 168 -130q66 -94 66 -222q0 -188 -112 -292q-114 -106 -294 -106q-96 0 -162 22v214q48 -20 124 -20q96 0 150 54q52 54 52 150q0 98 -64 152t-180 54h-72 v208h62q78 0 122 40q42 40 42 116q0 68 -44 112q-44 42 -118 42q-86 0 -130 -58q-46 -58 -46 -150v-926h-250z" />
<glyph unicode="&#xe0;" horiz-adv-x="958" d="M56 280q0 130 100 212q102 82 254 82q56 0 118 -16q62 -18 90 -38v68q0 62 -38 102t-112 40q-102 0 -134 -86h-242q20 126 126 208q106 84 260 84q182 0 282 -94q102 -92 102 -258v-584h-244v50q-24 -26 -88 -46t-134 -20q-146 0 -244 80q-96 80 -96 216zM208 1332h252 q42 -74 162 -292h-230q-46 74 -184 292zM290 282q0 -54 48 -84q48 -28 114 -28q58 0 104 22q46 20 62 58v66q-16 36 -62 58t-104 22q-64 0 -114 -30q-48 -28 -48 -84z" />
<glyph unicode="&#xe1;" horiz-adv-x="958" d="M56 280q0 130 100 212q102 82 254 82q56 0 118 -16q62 -18 90 -38v68q0 62 -38 102t-112 40q-102 0 -134 -86h-242q20 126 126 208q106 84 260 84q182 0 282 -94q102 -92 102 -258v-584h-244v50q-24 -26 -88 -46t-134 -20q-146 0 -244 80q-96 80 -96 216zM290 282 q0 -54 48 -84q48 -28 114 -28q58 0 104 22q46 20 62 58v66q-16 36 -62 58t-104 22q-64 0 -114 -30q-48 -28 -48 -84zM370 1040q42 74 162 292h252q-46 -74 -184 -292h-230z" />
<glyph unicode="&#xe2;" horiz-adv-x="958" d="M56 280q0 130 100 212q102 82 254 82q56 0 118 -16q62 -18 90 -38v68q0 62 -38 102t-112 40q-102 0 -134 -86h-242q20 126 126 208q106 84 260 84q182 0 282 -94q102 -92 102 -258v-584h-244v50q-24 -26 -88 -46t-134 -20q-146 0 -244 80q-96 80 -96 216zM190 1028 q50 74 196 298h212q48 -76 194 -298h-200q-26 36 -100 142q-26 -36 -100 -142h-202zM290 282q0 -54 48 -84q48 -28 114 -28q58 0 104 22q46 20 62 58v66q-16 36 -62 58t-104 22q-64 0 -114 -30q-48 -28 -48 -84z" />
<glyph unicode="&#xe3;" horiz-adv-x="958" d="M56 280q0 130 100 212q102 82 254 82q56 0 118 -16q62 -18 90 -38v68q0 62 -38 102t-112 40q-102 0 -134 -86h-242q20 126 126 208q106 84 260 84q182 0 282 -94q102 -92 102 -258v-584h-244v50q-24 -26 -88 -46t-134 -20q-146 0 -244 80q-96 80 -96 216zM200 1040 q0 130 44 208t132 78q50 0 114 -48q62 -48 90 -48q56 0 62 86h144q0 -128 -44 -206t-132 -78q-48 0 -112 48q-64 46 -90 46q-58 0 -62 -86h-146zM290 282q0 -54 48 -84q48 -28 114 -28q58 0 104 22q46 20 62 58v66q-16 36 -62 58t-104 22q-64 0 -114 -30q-48 -28 -48 -84z " />
<glyph unicode="&#xe4;" horiz-adv-x="958" d="M56 280q0 130 100 212q102 82 254 82q56 0 118 -16q62 -18 90 -38v68q0 62 -38 102t-112 40q-102 0 -134 -86h-242q20 126 126 208q106 84 260 84q182 0 282 -94q102 -92 102 -258v-584h-244v50q-24 -26 -88 -46t-134 -20q-146 0 -244 80q-96 80 -96 216zM192 1168 q0 56 40 96t98 40q56 0 94 -40q40 -40 40 -96t-40 -96q-38 -40 -94 -40q-58 0 -98 40t-40 96zM290 282q0 -54 48 -84q48 -28 114 -28q58 0 104 22q46 20 62 58v66q-16 36 -62 58t-104 22q-64 0 -114 -30q-48 -28 -48 -84zM528 1168q0 56 40 96t96 40q54 0 96 -40 q40 -40 40 -96t-40 -96q-42 -40 -96 -40q-56 0 -96 40t-40 96z" />
<glyph unicode="&#xe5;" horiz-adv-x="958" d="M56 280q0 130 100 212q102 82 254 82q56 0 118 -16q62 -18 90 -38v68q0 62 -38 102t-112 40q-102 0 -134 -86h-242q20 126 126 208q106 84 260 84q182 0 282 -94q102 -92 102 -258v-584h-244v50q-24 -26 -88 -46t-134 -20q-146 0 -244 80q-96 80 -96 216zM286 1196 q0 84 60 142q58 56 144 56t144 -56q58 -58 58 -142t-58 -142q-58 -56 -144 -56t-144 56q-60 58 -60 142zM290 282q0 -54 48 -84q48 -28 114 -28q58 0 104 22q46 20 62 58v66q-16 36 -62 58t-104 22q-64 0 -114 -30q-48 -28 -48 -84zM410 1196q0 -32 22 -56t58 -24 q34 0 58 24t24 56t-24 58q-24 24 -58 24t-56 -24q-24 -24 -24 -58z" />
<glyph unicode="&#xe6;" horiz-adv-x="1498" d="M56 268q0 136 104 214q106 78 266 78h186v30q0 62 -38 102t-112 40q-110 0 -138 -88h-232q20 126 124 208q104 84 252 84q194 0 288 -120q120 120 276 120q194 0 304 -124q110 -126 110 -330v-82h-608q6 -104 60 -160q52 -56 138 -56q138 0 168 110h236 q-24 -144 -132 -230q-106 -84 -274 -84q-194 0 -318 126q-124 -124 -320 -124q-144 0 -242 78q-98 80 -98 208zM290 286q0 -54 44 -84q42 -28 102 -28q132 0 176 104v120h-164q-66 0 -112 -28t-46 -84zM844 558h354q-4 74 -48 122q-42 50 -118 50q-154 0 -188 -172z" />
<glyph unicode="&#xe7;" horiz-adv-x="940" d="M54 456q0 214 122 346q124 134 318 134q168 0 274 -90t126 -240h-248q-12 54 -52 84q-38 28 -100 28q-86 0 -138 -70q-50 -72 -50 -192q0 -116 50 -188q52 -72 138 -72q62 0 100 30q40 30 52 84h248q-20 -150 -124 -240q-106 -90 -276 -90q-194 0 -318 132 q-122 134 -122 344zM248 -380q36 70 144 284h232q-38 -72 -150 -284h-226z" />
<glyph unicode="&#xe8;" horiz-adv-x="960" d="M54 456q0 208 124 344t316 136q196 0 306 -124t110 -330v-78h-610q6 -102 58 -162q54 -58 140 -58q138 0 170 116h236q-26 -150 -130 -236q-106 -84 -276 -84q-198 0 -322 132q-122 132 -122 344zM216 1332h250q42 -74 162 -292h-230q-46 74 -182 292zM306 558h354 q-2 74 -46 122q-42 50 -118 50q-156 0 -190 -172z" />
<glyph unicode="&#xe9;" horiz-adv-x="960" d="M54 456q0 208 124 344t316 136q196 0 306 -124t110 -330v-78h-610q6 -102 58 -162q54 -58 140 -58q138 0 170 116h236q-26 -150 -130 -236q-106 -84 -276 -84q-198 0 -322 132q-122 132 -122 344zM306 558h354q-2 74 -46 122q-42 50 -118 50q-156 0 -190 -172zM378 1040 q42 74 162 292h252q-46 -74 -184 -292h-230z" />
<glyph unicode="&#xea;" horiz-adv-x="960" d="M54 456q0 208 124 344t316 136q196 0 306 -124t110 -330v-78h-610q6 -102 58 -162q54 -58 140 -58q138 0 170 116h236q-26 -150 -130 -236q-106 -84 -276 -84q-198 0 -322 132q-122 132 -122 344zM200 1028q50 74 196 298h212q48 -76 194 -298h-200q-24 36 -100 142 q-26 -36 -100 -142h-202zM306 558h354q-2 74 -46 122q-42 50 -118 50q-156 0 -190 -172z" />
<glyph unicode="&#xeb;" horiz-adv-x="960" d="M54 456q0 208 124 344t316 136q196 0 306 -124t110 -330v-78h-610q6 -102 58 -162q54 -58 140 -58q138 0 170 116h236q-26 -150 -130 -236q-106 -84 -276 -84q-198 0 -322 132q-122 132 -122 344zM200 1168q0 56 40 96t98 40q56 0 96 -40t40 -96t-40 -96t-96 -40 q-58 0 -98 40t-40 96zM306 558h354q-2 74 -46 122q-42 50 -118 50q-156 0 -190 -172zM536 1168q0 56 40 96t96 40t96 -40t40 -96t-40 -96t-96 -40t-96 40t-40 96z" />
<glyph unicode="&#xec;" horiz-adv-x="476" d="M-52 1332h252q42 -74 162 -292h-230q-46 74 -184 292zM110 0v572v344h254v-916h-254z" />
<glyph unicode="&#xed;" horiz-adv-x="476" d="M110 0v572v344h254v-916h-254zM112 1040q42 74 162 292h252q-46 -74 -184 -292h-230z" />
<glyph unicode="&#xee;" horiz-adv-x="476" d="M-28 1028q40 74 160 298h212q40 -76 158 -298h-194q-18 36 -70 144l-72 -144h-194zM110 0v572v344h254v-916h-254z" />
<glyph unicode="&#xef;" horiz-adv-x="476" d="M-56 1168q0 56 40 96t98 40q56 0 96 -40t40 -96t-40 -96t-96 -40q-58 0 -98 40t-40 96zM110 0v572v344h254v-916h-254zM260 1168q0 56 40 96q38 40 96 40q54 0 94 -40t40 -96t-40 -96t-94 -40q-58 0 -96 40q-40 40 -40 96z" />
<glyph unicode="&#xf0;" horiz-adv-x="1002" d="M54 452q0 210 120 340q120 132 306 132q84 0 140 -50h8q-34 68 -148 178q-66 -20 -200 -62q-12 30 -48 126q32 10 128 42q-116 96 -216 166v8h320q54 -38 126 -102q58 20 174 58q12 -32 50 -126q-30 -10 -116 -38q252 -286 252 -644q0 -228 -124 -364t-324 -136 q-198 0 -324 132q-124 132 -124 340zM306 452q0 -116 50 -186q52 -72 146 -72t146 72q50 70 50 186q0 118 -52 190q-52 70 -144 70t-144 -70q-52 -72 -52 -190z" />
<glyph unicode="&#xf1;" horiz-adv-x="1034" d="M110 0v572v344h254v-84q90 104 246 104q154 0 238 -92q86 -92 86 -246v-598h-254v544q0 74 -38 118t-112 44q-58 0 -106 -34q-46 -34 -60 -92v-580h-254zM234 1040q0 130 44 208t132 78q48 0 112 -48t90 -48q58 0 62 86h146q0 -128 -44 -206t-132 -78q-50 0 -114 48 q-64 46 -90 46q-58 0 -62 -86h-144z" />
<glyph unicode="&#xf2;" horiz-adv-x="1002" d="M54 456q0 214 124 346q126 134 324 134t324 -134q124 -132 124 -346q0 -210 -124 -344q-126 -132 -324 -132t-324 132q-124 134 -124 344zM212 1332h252q42 -74 162 -292h-230q-46 74 -184 292zM306 456q0 -116 52 -188q52 -74 144 -74t144 74q52 72 52 188 q0 120 -52 192t-144 72t-144 -72t-52 -192z" />
<glyph unicode="&#xf3;" horiz-adv-x="1002" d="M54 456q0 214 124 346q126 134 324 134t324 -134q124 -132 124 -346q0 -210 -124 -344q-126 -132 -324 -132t-324 132q-124 134 -124 344zM306 456q0 -116 52 -188q52 -74 144 -74t144 74q52 72 52 188q0 120 -52 192t-144 72t-144 -72t-52 -192zM374 1040q42 74 162 292 h252q-46 -74 -184 -292h-230z" />
<glyph unicode="&#xf4;" horiz-adv-x="1002" d="M54 456q0 214 124 346q126 134 324 134t324 -134q124 -132 124 -346q0 -210 -124 -344q-126 -132 -324 -132t-324 132q-124 134 -124 344zM200 1028q50 74 196 298h212q48 -76 194 -298h-200q-24 36 -100 142q-26 -36 -100 -142h-202zM306 456q0 -116 52 -188 q52 -74 144 -74t144 74q52 72 52 188q0 120 -52 192t-144 72t-144 -72t-52 -192z" />
<glyph unicode="&#xf5;" horiz-adv-x="1002" d="M54 456q0 214 124 346q126 134 324 134t324 -134q124 -132 124 -346q0 -210 -124 -344q-126 -132 -324 -132t-324 132q-124 134 -124 344zM208 1040q0 130 44 208t134 78q48 0 112 -48t90 -48q58 0 62 86h144q0 -128 -44 -206t-132 -78q-48 0 -112 48q-64 46 -90 46 q-58 0 -62 -86h-146zM306 456q0 -116 52 -188q52 -74 144 -74t144 74q52 72 52 188q0 120 -52 192t-144 72t-144 -72t-52 -192z" />
<glyph unicode="&#xf6;" horiz-adv-x="1002" d="M54 456q0 214 124 346q126 134 324 134t324 -134q124 -132 124 -346q0 -210 -124 -344q-126 -132 -324 -132t-324 132q-124 134 -124 344zM198 1168q0 56 40 96t98 40q56 0 96 -40t40 -96t-40 -96t-96 -40q-58 0 -98 40t-40 96zM306 456q0 -116 52 -188q52 -74 144 -74 t144 74q52 72 52 188q0 120 -52 192t-144 72t-144 -72t-52 -192zM534 1168q0 56 40 96t96 40q54 0 96 -40q40 -40 40 -96t-40 -96q-42 -40 -96 -40q-56 0 -96 40t-40 96z" />
<glyph unicode="&#xf7;" horiz-adv-x="1146" d="M132 514v196h884v-196h-884zM430 258q0 60 42 102t102 42q58 0 102 -42t44 -102t-44 -102q-44 -44 -102 -44q-60 0 -102 44q-42 42 -42 102zM430 966q0 60 42 104q42 42 102 42q58 0 102 -42q44 -44 44 -104q0 -58 -44 -100t-102 -42q-60 0 -102 42t-42 100z" />
<glyph unicode="&#xf8;" horiz-adv-x="1022" d="M64 456q0 214 124 346q126 134 324 134q142 0 252 -72l84 102q24 -18 98 -74q-22 -28 -92 -112q106 -128 106 -324q0 -210 -124 -344q-126 -132 -324 -132q-148 0 -254 72q-30 -36 -88 -110q-26 20 -100 76l96 120q-102 128 -102 318zM312 456q0 -66 18 -120 q96 118 290 352q-46 34 -108 34q-94 0 -148 -72q-52 -74 -52 -194zM402 226q44 -36 110 -36q92 0 146 76q54 74 54 190q0 64 -20 126q-96 -120 -290 -356z" />
<glyph unicode="&#xf9;" horiz-adv-x="1030" d="M100 318v388v210h254v-548q0 -76 38 -118q36 -44 110 -44q60 0 104 34q46 34 60 94v582h256v-916h-254v84q-94 -104 -246 -104t-238 92q-84 92 -84 246zM228 1332h252q40 -74 162 -292h-232q-46 74 -182 292z" />
<glyph unicode="&#xfa;" horiz-adv-x="1030" d="M100 318v388v210h254v-548q0 -76 38 -118q36 -44 110 -44q60 0 104 34q46 34 60 94v582h256v-916h-254v84q-94 -104 -246 -104t-238 92q-84 92 -84 246zM392 1040q40 74 160 292h252q-46 -74 -184 -292h-228z" />
<glyph unicode="&#xfb;" horiz-adv-x="1030" d="M100 318v388v210h254v-548q0 -76 38 -118q36 -44 110 -44q60 0 104 34q46 34 60 94v582h256v-916h-254v84q-94 -104 -246 -104t-238 92q-84 92 -84 246zM216 1028q48 74 194 298h212q50 -76 196 -298h-202q-24 36 -100 142q-24 -36 -100 -142h-200z" />
<glyph unicode="&#xfc;" horiz-adv-x="1030" d="M100 318v388v210h254v-548q0 -76 38 -118q36 -44 110 -44q60 0 104 34q46 34 60 94v582h256v-916h-254v84q-94 -104 -246 -104t-238 92q-84 92 -84 246zM212 1168q0 56 40 96t98 40q56 0 96 -40t40 -96t-40 -96t-96 -40q-58 0 -98 40t-40 96zM548 1168q0 56 40 96t96 40 t96 -40q42 -40 42 -96t-42 -96q-40 -40 -96 -40t-96 40t-40 96z" />
<glyph unicode="&#xfd;" horiz-adv-x="998" d="M26 916h268q54 -152 212 -608l208 608h256q-118 -314 -476 -1254h-250q32 84 132 334q-86 230 -350 920zM378 1040q42 74 162 292h252q-46 -74 -184 -292h-230z" />
<glyph unicode="&#xfe;" horiz-adv-x="1062" d="M110 -338v1044v626h254v-492q34 38 96 68q64 28 134 28q192 0 306 -138q112 -138 112 -342q0 -202 -112 -340q-114 -136 -306 -136q-70 0 -134 28q-62 28 -96 68v-414h-254zM364 308q24 -48 70 -78q48 -30 102 -30q100 0 160 72t60 184q0 114 -60 186t-160 72 q-54 0 -100 -28q-46 -30 -72 -78v-300z" />
<glyph unicode="&#xff;" horiz-adv-x="998" d="M26 916h268q54 -152 212 -608l208 608h256q-118 -314 -476 -1254h-250q32 84 132 334q-86 230 -350 920zM200 1168q0 56 40 96t98 40q56 0 96 -40t40 -96t-40 -96t-96 -40q-58 0 -98 40t-40 96zM536 1168q0 56 40 96t96 40t96 -40t40 -96t-40 -96t-96 -40t-96 40t-40 96z " />
<glyph unicode="&#x152;" horiz-adv-x="1704" d="M60 628q0 290 168 460t452 170h942v-230h-558v-274h502v-224h-502v-298h558v-232h-942q-284 0 -452 170t-168 458zM322 628q0 -186 96 -292q96 -104 274 -104h114v796h-114q-178 0 -274 -106t-96 -294z" />
<glyph unicode="&#x153;" horiz-adv-x="1594" d="M54 456q0 214 124 346q126 134 324 134q190 0 314 -134q126 134 312 134q198 0 306 -124q110 -124 110 -330v-78h-610q6 -102 60 -162q52 -58 138 -58q140 0 170 116h236q-24 -150 -130 -236q-106 -84 -276 -84q-192 0 -316 130q-122 -130 -314 -130q-198 0 -324 132 q-124 134 -124 344zM306 456q0 -116 52 -188q52 -74 144 -74t144 74q52 72 52 188q0 120 -52 192t-144 72t-144 -72t-52 -192zM940 558h354q-4 74 -46 122q-42 50 -118 50q-156 0 -190 -172z" />
<glyph unicode="&#x178;" horiz-adv-x="1214" d="M22 1258h286q76 -134 304 -534q76 134 304 534h276q-114 -196 -456 -780v-478h-260v478q-114 194 -454 780zM302 1496q0 58 38 98t98 40q58 0 98 -40t40 -98q0 -56 -40 -96t-98 -40t-98 40q-38 40 -38 96zM638 1496q0 58 40 98t98 40t98 -40q42 -40 42 -98q0 -56 -42 -96 q-40 -40 -98 -40t-98 40t-40 96z" />
<glyph unicode="&#x2c6;" horiz-adv-x="1024" d="M210 1028q50 74 196 298h212q50 -76 196 -298h-202q-24 36 -100 142q-26 -36 -100 -142h-202z" />
<glyph unicode="&#x2dc;" horiz-adv-x="1024" d="M220 1040q0 130 44 208t132 78q48 0 112 -48t90 -48q58 0 62 86h144q0 -128 -44 -206t-132 -78q-48 0 -112 48q-64 46 -90 46q-58 0 -62 -86h-144z" />
<glyph unicode="&#x2000;" horiz-adv-x="860" />
<glyph unicode="&#x2001;" horiz-adv-x="1720" />
<glyph unicode="&#x2002;" horiz-adv-x="860" />
<glyph unicode="&#x2003;" horiz-adv-x="1720" />
<glyph unicode="&#x2004;" horiz-adv-x="573" />
<glyph unicode="&#x2005;" horiz-adv-x="430" />
<glyph unicode="&#x2006;" horiz-adv-x="286" />
<glyph unicode="&#x2007;" horiz-adv-x="286" />
<glyph unicode="&#x2008;" horiz-adv-x="215" />
<glyph unicode="&#x2009;" horiz-adv-x="344" />
<glyph unicode="&#x200a;" horiz-adv-x="95" />
<glyph unicode="&#x2010;" horiz-adv-x="650" d="M78 426v222h494v-222h-494z" />
<glyph unicode="&#x2011;" horiz-adv-x="650" d="M78 426v222h494v-222h-494z" />
<glyph unicode="&#x2012;" horiz-adv-x="650" d="M78 426v222h494v-222h-494z" />
<glyph unicode="&#x2013;" horiz-adv-x="964" d="M78 444v184h808v-184h-808z" />
<glyph unicode="&#x2014;" horiz-adv-x="1724" d="M78 444v184h392h1176v-184h-1568z" />
<glyph unicode="&#x2018;" horiz-adv-x="420" d="M44 904q0 84 66 184q38 56 114 170h162q-38 -56 -146 -226q54 -10 90 -48q34 -40 34 -100q0 -66 -46 -110t-114 -44t-114 46t-46 128z" />
<glyph unicode="&#x2019;" horiz-adv-x="420" d="M34 750q38 56 146 224q-56 12 -90 50t-34 98q0 68 46 112t114 44t114 -46t46 -128q0 -84 -66 -184q-38 -58 -114 -170h-162z" />
<glyph unicode="&#x201a;" horiz-adv-x="420" d="M34 -226q38 58 146 226q-56 10 -90 50q-34 38 -34 98q0 68 46 112t114 44t114 -46q46 -48 46 -128q0 -84 -66 -186q-38 -56 -114 -170h-162z" />
<glyph unicode="&#x201c;" horiz-adv-x="820" d="M44 904q0 84 66 184q38 56 114 170h162q-38 -56 -146 -226q54 -10 90 -48q34 -40 34 -100q0 -66 -46 -110t-114 -44t-114 46t-46 128zM442 904q0 84 68 184q38 56 112 170h162q-36 -56 -146 -226q56 -10 92 -48q34 -40 34 -100q0 -66 -46 -110t-114 -44q-70 0 -116 46 t-46 128z" />
<glyph unicode="&#x201d;" horiz-adv-x="820" d="M34 750q38 56 146 224q-56 12 -90 50t-34 98q0 68 46 112t114 44t114 -46t46 -128q0 -84 -66 -184q-38 -58 -114 -170h-162zM434 750q36 56 146 224q-56 12 -90 50q-36 38 -36 98q0 68 46 112t114 44q70 0 116 -46t46 -128q0 -84 -68 -184q-36 -58 -112 -170h-162z" />
<glyph unicode="&#x201e;" horiz-adv-x="820" d="M34 -226q38 58 146 226q-56 10 -90 50q-34 38 -34 98q0 68 46 112t114 44t114 -46q46 -48 46 -128q0 -84 -66 -186q-38 -56 -114 -170h-162zM434 -226q36 58 146 226q-56 10 -90 50q-36 38 -36 98q0 68 46 112t114 44q70 0 116 -46q46 -48 46 -128q0 -84 -68 -186 q-36 -56 -112 -170h-162z" />
<glyph unicode="&#x2022;" horiz-adv-x="746" d="M60 536q0 138 90 226t222 88q134 0 224 -88q92 -88 92 -226q0 -134 -92 -222q-90 -88 -224 -88q-132 0 -222 86q-90 88 -90 224z" />
<glyph unicode="&#x2026;" horiz-adv-x="1372" d="M56 150q0 70 46 116t114 46q66 0 112 -46t46 -116t-46 -118q-46 -46 -112 -46q-68 0 -114 46q-46 48 -46 118zM526 150q0 70 46 116t114 46t114 -46t46 -116t-46 -118q-46 -46 -114 -46t-114 46q-46 48 -46 118zM998 150q0 70 46 116t114 46q66 0 112 -46t46 -116 t-46 -118q-46 -46 -112 -46q-68 0 -114 46q-46 48 -46 118z" />
<glyph unicode="&#x202f;" horiz-adv-x="344" />
<glyph unicode="&#x2039;" horiz-adv-x="520" d="M52 454q46 84 188 330h228q-46 -82 -188 -330q48 -82 188 -330h-228q-48 84 -188 330z" />
<glyph unicode="&#x203a;" horiz-adv-x="520" d="M52 124q46 84 188 330q-48 84 -188 330h228q48 -82 188 -330q-46 -82 -188 -330h-228z" />
<glyph unicode="&#x205f;" horiz-adv-x="430" />
<glyph unicode="&#x20ac;" horiz-adv-x="1138" d="M54 412v158h98q-2 18 -2 58v54h-96v40v118h118q48 200 180 320q132 118 310 118q176 0 286 -100q110 -98 148 -276h-236q-40 146 -198 146q-172 0 -236 -208h340q-8 -40 -30 -158h-336v-54t2 -58h316q-8 -40 -32 -158h-258q64 -204 234 -204q158 0 198 148h236 q-38 -178 -148 -278q-110 -98 -286 -98q-178 0 -310 116q-130 116 -178 316h-120z" />
<glyph unicode="&#x2122;" horiz-adv-x="1232" d="M40 1126v132h468v-132h-158v-388h-152v388h-158zM580 738v520h180q26 -78 108 -314q28 78 110 314h180v-520h-138v298q-26 -74 -104 -298h-94q-26 74 -106 298v-298h-136z" />
<glyph unicode="&#x25fc;" horiz-adv-x="920" d="M0 0v920h920v-920h-920z" />
<glyph unicode="&#xfb01;" horiz-adv-x="1142" d="M32 710v130v76h150v108q0 154 88 240t236 86q86 0 142 -24v-216q-36 24 -90 24q-126 0 -126 -126v-92h190v-206h-190v-710h-250v710h-150zM754 1180q0 62 44 104q46 42 108 42q60 0 104 -42t44 -104q0 -64 -44 -104q-44 -42 -104 -42q-64 0 -108 42q-44 40 -44 104z M778 0v916h254v-916h-254z" />
<glyph unicode="&#xfb02;" horiz-adv-x="1142" d="M32 710v130v76h150v108q0 154 88 240t236 86q86 0 142 -24v-216q-36 24 -90 24q-126 0 -126 -126v-92h190v-206h-190v-710h-250v710h-150zM778 0v1332h254v-1332h-254z" />
</font>
</defs>
</svg>
